<svg width="24" height="24" viewBox="0 0 24 24" fill="none" xmlns="http://www.w3.org/2000/svg">
<path d="M12.3868 18.7306H7.70978C7.59578 19.1601 7.36153 19.5175 7.00703 19.8028C6.65253 20.088 6.24003 20.2306 5.76953 20.2306C5.21403 20.2306 4.74178 20.0361 4.35278 19.6473C3.96395 19.2583 3.76953 18.7861 3.76953 18.2306C3.76953 17.7601 3.91211 17.3476 4.19728 16.9931C4.48261 16.6386 4.84003 16.4043 5.26953 16.2903V7.7093C4.84003 7.5953 4.48261 7.36106 4.19728 7.00656C3.91211 6.65206 3.76953 6.23956 3.76953 5.76906C3.76953 5.21356 3.96395 4.7413 4.35278 4.3523C4.74178 3.96347 5.21403 3.76906 5.76953 3.76906C6.24003 3.76906 6.65253 3.91164 7.00703 4.1968C7.36153 4.48214 7.59578 4.83956 7.70978 5.26906H12.3868L10.3965 3.2978C10.29 3.20747 10.2368 3.09455 10.2368 2.95905C10.2368 2.82339 10.2886 2.70047 10.3923 2.5903C10.5053 2.47997 10.6256 2.4248 10.7533 2.4248C10.8808 2.4248 10.9996 2.47997 11.1098 2.5903L13.7233 5.20356C13.8849 5.36522 13.9658 5.55372 13.9658 5.76906C13.9658 5.98439 13.8849 6.1728 13.7233 6.3343L11.104 8.95356C11.054 9.00239 10.9999 9.03897 10.9415 9.0633C10.8832 9.08764 10.8236 9.0988 10.7628 9.0968C10.7019 9.09497 10.6388 9.08189 10.5733 9.05755C10.5078 9.03322 10.4489 8.99664 10.3965 8.9478C10.29 8.83764 10.2359 8.71972 10.234 8.59406C10.232 8.46839 10.2862 8.35047 10.3965 8.2403L12.3868 6.26906H7.70978C7.61111 6.62539 7.43553 6.92989 7.18303 7.18255C6.93036 7.43505 6.62586 7.61064 6.26953 7.7093V16.2903C6.62586 16.389 6.93036 16.5646 7.18303 16.8171C7.43553 17.0697 7.61111 17.3742 7.70978 17.7306H12.3675L10.3965 15.7403C10.3029 15.6498 10.256 15.5368 10.256 15.4013C10.256 15.2656 10.3029 15.1491 10.3965 15.0518C10.4939 14.9415 10.6128 14.8896 10.7533 14.8961C10.8936 14.9024 11.0124 14.9543 11.1098 15.0518L13.7233 17.6653C13.8849 17.8268 13.9658 18.0152 13.9658 18.2306C13.9658 18.4459 13.8849 18.6344 13.7233 18.7961L11.104 21.4153C11.054 21.464 10.9999 21.5005 10.9415 21.5248C10.8832 21.5491 10.8204 21.5604 10.7533 21.5586C10.6859 21.5566 10.6213 21.5434 10.5593 21.5191C10.4974 21.4947 10.4418 21.4581 10.3923 21.4093C10.3014 21.312 10.2583 21.1941 10.2628 21.0556C10.2673 20.9171 10.3183 20.7991 10.4158 20.7018L12.3868 18.7306ZM16.8175 19.6473C16.4265 19.2583 16.231 18.7861 16.231 18.2306C16.231 17.7619 16.3737 17.3489 16.659 16.9916C16.9442 16.6342 17.3015 16.4005 17.731 16.2903V7.7093C17.3015 7.59914 16.9442 7.36539 16.659 7.00806C16.3737 6.65072 16.231 6.23772 16.231 5.76906C16.231 5.21356 16.425 4.7413 16.813 4.3523C17.201 3.96347 17.6722 3.76906 18.2265 3.76906C18.7809 3.76906 19.2535 3.96347 19.6445 4.3523C20.0355 4.7413 20.231 5.21356 20.231 5.76906C20.231 6.23772 20.0884 6.65072 19.8033 7.00806C19.5179 7.36539 19.1605 7.59914 18.731 7.7093V16.2903C19.1605 16.4043 19.5179 16.6386 19.8033 16.9931C20.0884 17.3476 20.231 17.7601 20.231 18.2306C20.231 18.7861 20.037 19.2583 19.649 19.6473C19.261 20.0361 18.7899 20.2306 18.2355 20.2306C17.6812 20.2306 17.2085 20.0361 16.8175 19.6473ZM5.76953 19.2306C6.05286 19.2306 6.29036 19.1347 6.48203 18.9431C6.6737 18.7514 6.76953 18.5139 6.76953 18.2306C6.76953 17.9472 6.6737 17.7097 6.48203 17.5181C6.29036 17.3264 6.05286 17.2306 5.76953 17.2306C5.4862 17.2306 5.2487 17.3264 5.05703 17.5181C4.86536 17.7097 4.76953 17.9472 4.76953 18.2306C4.76953 18.5139 4.86536 18.7514 5.05703 18.9431C5.2487 19.1347 5.4862 19.2306 5.76953 19.2306ZM18.231 19.2306C18.5144 19.2306 18.7519 19.1347 18.9435 18.9431C19.1352 18.7514 19.231 18.5139 19.231 18.2306C19.231 17.9472 19.1352 17.7097 18.9435 17.5181C18.7519 17.3264 18.5144 17.2306 18.231 17.2306C17.9477 17.2306 17.7102 17.3264 17.5185 17.5181C17.3269 17.7097 17.231 17.9472 17.231 18.2306C17.231 18.5139 17.3269 18.7514 17.5185 18.9431C17.7102 19.1347 17.9477 19.2306 18.231 19.2306ZM5.76953 6.76906C6.05286 6.76906 6.29036 6.67322 6.48203 6.48156C6.6737 6.28989 6.76953 6.05239 6.76953 5.76906C6.76953 5.48572 6.6737 5.24822 6.48203 5.05656C6.29036 4.86489 6.05286 4.76906 5.76953 4.76906C5.4862 4.76906 5.2487 4.86489 5.05703 5.05656C4.86536 5.24822 4.76953 5.48572 4.76953 5.76906C4.76953 6.05239 4.86536 6.28989 5.05703 6.48156C5.2487 6.67322 5.4862 6.76906 5.76953 6.76906ZM18.231 6.76906C18.5144 6.76906 18.7519 6.67322 18.9435 6.48156C19.1352 6.28989 19.231 6.05239 19.231 5.76906C19.231 5.48572 19.1352 5.24822 18.9435 5.05656C18.7519 4.86489 18.5144 4.76906 18.231 4.76906C17.9477 4.76906 17.7102 4.86489 17.5185 5.05656C17.3269 5.24822 17.231 5.48572 17.231 5.76906C17.231 6.05239 17.3269 6.28989 17.5185 6.48156C17.7102 6.67322 17.9477 6.76906 18.231 6.76906Z" fill="white"/>
</svg>
