<svg width="24" height="24" viewBox="0 0 24 24" fill="none" xmlns="http://www.w3.org/2000/svg">
<path d="M11.962 5C10.9273 5 9.95488 5.21858 9.04472 5.65575C8.13438 6.09292 7.33113 6.69483 6.63497 7.4615H8.61597C8.75813 7.4615 8.87697 7.50925 8.97247 7.60475C9.06813 7.70025 9.11597 7.81917 9.11597 7.9615C9.11597 8.10383 9.06813 8.22275 8.97247 8.31825C8.87697 8.41375 8.75813 8.4615 8.61597 8.4615H5.76972C5.53772 8.4615 5.34505 8.38492 5.19172 8.23175C5.03855 8.07858 4.96197 7.88592 4.96197 7.65375V4.80775C4.96197 4.66542 5.00972 4.5465 5.10522 4.451C5.20072 4.3555 5.31963 4.30775 5.46197 4.30775C5.6043 4.30775 5.72322 4.3555 5.81872 4.451C5.91422 4.5465 5.96197 4.66542 5.96197 4.80775V6.69625C6.73513 5.84742 7.64122 5.18583 8.68022 4.7115C9.71938 4.23717 10.8133 4 11.962 4C13.071 4 14.1104 4.20767 15.0802 4.623C16.05 5.0385 16.8985 5.60967 17.6255 6.3365C18.3768 7.08783 18.939 7.91542 19.312 8.81925C19.6851 9.72308 19.898 10.7 19.9505 11.75C19.9581 11.8153 19.9389 11.8724 19.8927 11.9213C19.8465 11.9699 19.7908 11.9942 19.7255 11.9942C19.6601 12.1737 19.5188 12.2423 19.3015 12.2C19.0841 12.1577 18.9652 12.0141 18.9447 11.7692C18.8922 10.8487 18.7056 9.9975 18.385 9.2155C18.0645 8.43333 17.5735 7.7115 16.912 7.05C16.2786 6.41667 15.5411 5.91667 14.6995 5.55C13.8578 5.18333 12.9453 5 11.962 5ZM4.54272 13.073C4.68122 13.0525 4.8043 13.0833 4.91197 13.1655C5.01963 13.2475 5.09597 13.3578 5.14097 13.4963C5.46913 14.9744 6.1838 16.2083 7.28497 17.198C8.3863 18.1878 9.67997 18.768 11.166 18.9385C11.3493 18.9628 11.4775 19.0279 11.5505 19.1337C11.6235 19.2394 11.66 19.3513 11.66 19.4693C11.66 19.5949 11.6174 19.7148 11.5322 19.8288C11.4469 19.9429 11.3228 19.9898 11.16 19.9693C9.4383 19.7911 7.93097 19.1267 6.63797 17.976C5.34497 16.8253 4.51455 15.4032 4.14672 13.7095C4.10172 13.5545 4.12088 13.4148 4.20422 13.2905C4.28755 13.166 4.40038 13.0935 4.54272 13.073ZM12.5197 11.7923L14.6427 13.9155C14.7607 14.0333 14.8136 14.1573 14.8015 14.2875C14.7893 14.4177 14.7364 14.5295 14.6427 14.623C14.5492 14.7167 14.4374 14.7696 14.3072 14.7817C14.177 14.7939 14.053 14.741 13.935 14.623L11.762 12.45C11.6748 12.3628 11.6126 12.2728 11.5755 12.1798C11.5383 12.0869 11.5197 11.9866 11.5197 11.8787V7.5C11.5197 7.35767 11.5675 7.23875 11.663 7.14325C11.7585 7.04775 11.8774 7 12.0197 7C12.162 7 12.281 7.04775 12.3765 7.14325C12.472 7.23875 12.5197 7.35767 12.5197 7.5V11.7923ZM19.2947 23.5C19.1895 23.5 19.1008 23.4667 19.0285 23.4C18.956 23.3333 18.9075 23.2474 18.8832 23.1423L18.7525 22.2885C18.437 22.2308 18.1373 22.1241 17.8535 21.9682C17.5695 21.8124 17.3165 21.6102 17.0947 21.3615L16.235 21.6443C16.1466 21.6724 16.0591 21.6705 15.9725 21.6385C15.886 21.6065 15.8165 21.5501 15.764 21.4693L15.6985 21.3307C15.646 21.2461 15.6268 21.1544 15.641 21.0557C15.655 20.9571 15.7024 20.8776 15.7832 20.8173L16.4485 20.2845C16.3255 19.9653 16.264 19.6333 16.264 19.2885C16.264 18.9437 16.3255 18.5988 16.4485 18.2538L15.764 17.702C15.6831 17.6417 15.6325 17.5599 15.612 17.4568C15.5915 17.3536 15.6075 17.2532 15.66 17.1557L15.7505 17.0115C15.803 16.9308 15.8748 16.8713 15.966 16.8328C16.057 16.7943 16.153 16.7955 16.2542 16.8365L17.114 17.1578C17.3358 16.9218 17.5823 16.7291 17.8535 16.5798C18.1245 16.4304 18.4241 16.3205 18.7525 16.25L18.8832 15.3905C18.9075 15.2853 18.956 15.2003 19.0285 15.1355C19.1008 15.0708 19.1895 15.0385 19.2947 15.0385H19.4255C19.5306 15.0385 19.6194 15.0718 19.6917 15.1385C19.7642 15.2052 19.8126 15.2911 19.837 15.3963L19.9677 16.25C20.3087 16.3205 20.6222 16.4388 20.9082 16.6048C21.194 16.7708 21.4395 16.9782 21.6447 17.227L22.512 16.9057C22.6171 16.8609 22.7171 16.8577 22.812 16.8962C22.9068 16.9346 22.9805 17.0025 23.0332 17.1L23.1177 17.2385C23.1704 17.3358 23.1865 17.4371 23.166 17.5423C23.1453 17.6474 23.0946 17.7302 23.014 17.7905L22.291 18.3423C22.4011 18.6871 22.4562 19.0173 22.4562 19.3328C22.4562 19.6481 22.4011 19.9462 22.291 20.227L23.0525 20.8173C23.1331 20.8776 23.1837 20.9562 23.2042 21.053C23.2247 21.1497 23.2087 21.2403 23.1562 21.325L23.066 21.4693C23.0133 21.5501 22.9446 21.6065 22.86 21.6385C22.7755 21.6705 22.689 21.6724 22.6005 21.6443L21.6447 21.323C21.4357 21.5718 21.1892 21.7805 20.9052 21.949C20.6212 22.1177 20.3087 22.2308 19.9677 22.2885L19.837 23.148C19.8126 23.2532 19.7642 23.3382 19.6917 23.403C19.6194 23.4677 19.5306 23.5 19.4255 23.5H19.2947ZM20.8785 20.7875C21.3021 20.3638 21.514 19.8578 21.514 19.2693C21.514 18.6808 21.3021 18.1747 20.8785 17.751C20.4546 17.3273 19.9485 17.1155 19.36 17.1155C18.7716 17.1155 18.2655 17.3273 17.8417 17.751C17.418 18.1747 17.2062 18.6808 17.2062 19.2693C17.2062 19.8578 17.418 20.3638 17.8417 20.7875C18.2655 21.2112 18.7716 21.423 19.36 21.423C19.9485 21.423 20.4546 21.2112 20.8785 20.7875Z" fill="white"/>
</svg>
