<svg width="24" height="24" viewBox="0 0 24 24" fill="none" xmlns="http://www.w3.org/2000/svg">
<mask id="mask0_75_97" style="mask-type:luminance" maskUnits="userSpaceOnUse" x="5" y="5" width="14" height="14">
<path fill-rule="evenodd" clip-rule="evenodd" d="M9.02983 9.73631C8.79544 9.50213 8.47767 9.37058 8.14633 9.37058C7.815 9.37058 7.49722 9.50213 7.26283 9.73631L5.88283 11.1153C5.76673 11.2314 5.67462 11.3692 5.61178 11.5209C5.54894 11.6726 5.5166 11.8351 5.5166 11.9993C5.5166 12.1635 5.54894 12.3261 5.61178 12.4777C5.67462 12.6294 5.76673 12.7672 5.88283 12.8833L7.26283 14.2613C7.49722 14.4955 7.815 14.627 8.14633 14.627C8.47767 14.627 8.79544 14.4955 9.02983 14.2613L10.4088 12.8833C10.5249 12.7672 10.617 12.6294 10.6799 12.4777C10.7427 12.3261 10.7751 12.1635 10.7751 11.9993C10.7751 11.8351 10.7427 11.6726 10.6799 11.5209C10.617 11.3692 10.5249 11.2314 10.4088 11.1153L9.02983 9.73631ZM9.73684 7.26131C9.62073 7.37739 9.52862 7.5152 9.46578 7.66688C9.40294 7.81856 9.3706 7.98113 9.3706 8.14531C9.3706 8.30949 9.40294 8.47206 9.46578 8.62374C9.52862 8.77542 9.62073 8.91323 9.73684 9.02931L11.1168 10.4083C11.3512 10.6425 11.669 10.774 12.0003 10.774C12.3317 10.774 12.6494 10.6425 12.8838 10.4083L14.2628 9.02931C14.3789 8.91323 14.471 8.77542 14.5339 8.62374C14.5967 8.47206 14.6291 8.30949 14.6291 8.14531C14.6291 7.98113 14.5967 7.81856 14.5339 7.66688C14.471 7.5152 14.3789 7.37739 14.2628 7.26131L12.8828 5.88331C12.6484 5.64913 12.3307 5.51758 11.9993 5.51758C11.668 5.51758 11.3502 5.64913 11.1158 5.88331L9.73684 7.26131ZM16.7368 9.73631C16.5024 9.50213 16.1847 9.37058 15.8533 9.37058C15.522 9.37058 15.2042 9.50213 14.9698 9.73631L13.5908 11.1153C13.4747 11.2314 13.3826 11.3692 13.3198 11.5209C13.2569 11.6726 13.2246 11.8351 13.2246 11.9993C13.2246 12.1635 13.2569 12.3261 13.3198 12.4777C13.3826 12.6294 13.4747 12.7672 13.5908 12.8833L14.9698 14.2613C15.2042 14.4955 15.522 14.627 15.8533 14.627C16.1847 14.627 16.5024 14.4955 16.7368 14.2613L18.1168 12.8833C18.2329 12.7672 18.325 12.6294 18.3879 12.4777C18.4507 12.3261 18.4831 12.1635 18.4831 11.9993C18.4831 11.8351 18.4507 11.6726 18.3879 11.5209C18.325 11.3692 18.2329 11.2314 18.1168 11.1153L16.7368 9.73631ZM14.2628 16.7363C14.497 16.5019 14.6286 16.1841 14.6286 15.8528C14.6286 15.5215 14.497 15.2037 14.2628 14.9693L12.8828 13.5893C12.6484 13.3551 12.3307 13.2236 11.9993 13.2236C11.668 13.2236 11.3502 13.3551 11.1158 13.5893L9.73684 14.9693C9.50265 15.2037 9.3711 15.5215 9.3711 15.8528C9.3711 16.1841 9.50265 16.5019 9.73684 16.7363L11.1168 18.1153C11.3512 18.3495 11.669 18.481 12.0003 18.481C12.3317 18.481 12.6494 18.3495 12.8838 18.1153L14.2628 16.7363Z" fill="white"/>
</mask>
<g mask="url(#mask0_75_97)">
<path d="M6.59062 11.8226L7.96962 10.4436L6.55462 9.0296L5.17662 10.4096L6.59062 11.8236V11.8226ZM7.96962 13.5546L6.58962 12.1766L5.17662 13.5896L6.55562 14.9686L7.96962 13.5536V13.5546ZM9.73662 14.9696L11.1166 13.5906L9.70162 12.1766L8.32262 13.5546L9.73662 14.9696ZM11.1166 10.4086L9.73562 9.0296L8.32162 10.4436L9.70062 11.8236L11.1146 10.4086H11.1166ZM9.02962 9.7366L10.4086 11.1156L11.8226 9.7016L10.4436 8.3226L9.02962 9.7366ZM13.5906 11.1156L14.9696 9.7366L13.5556 8.3226L12.1766 9.7016L13.5906 11.1156ZM12.1766 6.5906L13.5556 7.9696L14.9696 6.5546L13.5906 5.1766L12.1766 6.5906ZM10.4446 7.9696L11.8226 6.5896L10.4086 5.1766L9.02962 6.5546L10.4446 7.9696ZM14.2626 9.0296L12.8826 10.4086L14.2976 11.8226L15.6766 10.4436L14.2626 9.0296ZM12.8826 13.5896L14.2626 14.9696L15.6766 13.5546L14.2976 12.1766L12.8836 13.5906L12.8826 13.5896ZM17.4086 12.1766L16.0296 13.5546L17.4446 14.9696L18.8226 13.5906L17.4086 12.1766ZM16.0296 10.4436L17.4086 11.8226L18.8226 10.4086L17.4446 9.0296L16.0296 10.4436ZM14.9696 14.2616L13.5906 12.8836L12.1766 14.2976L13.5546 15.6766L14.9696 14.2616ZM10.4086 12.8836L9.02962 14.2616L10.4446 15.6766L11.8226 14.2976L10.4086 12.8836ZM11.8226 17.4086L10.4446 16.0296L9.02962 17.4436L10.4086 18.8226L11.8226 17.4086ZM13.5546 16.0296L12.1766 17.4086L13.5906 18.8226L14.9696 17.4436L13.5546 16.0296ZM10.4086 18.8226C10.6176 19.0315 10.8656 19.1973 11.1386 19.3103C11.4116 19.4234 11.7041 19.4816 11.9996 19.4816C12.2951 19.4816 12.5877 19.4234 12.8607 19.3103C13.1336 19.1973 13.3817 19.0315 13.5906 18.8226L12.1766 17.4086C12.1534 17.4319 12.1258 17.4504 12.0954 17.463C12.0651 17.4756 12.0325 17.482 11.9996 17.482C11.9667 17.482 11.9342 17.4756 11.9038 17.463C11.8734 17.4504 11.8458 17.4319 11.8226 17.4086L10.4086 18.8226ZM9.02962 14.2616C8.60796 14.6835 8.3711 15.2566 8.3711 15.8531C8.3711 16.4496 8.60796 17.0217 9.02962 17.4436L10.4446 16.0296C10.3979 15.9827 10.3717 15.9193 10.3717 15.8531C10.3717 15.7869 10.3979 15.7235 10.4446 15.6766L9.02962 14.2616ZM13.5906 12.8836C13.3817 12.6747 13.1336 12.5079 12.8607 12.3949C12.5877 12.2818 12.2951 12.2236 11.9996 12.2236C11.7041 12.2236 11.4116 12.2818 11.1386 12.3949C10.8656 12.5079 10.6176 12.6747 10.4086 12.8836L11.8226 14.2976C11.8458 14.2743 11.8734 14.2558 11.9038 14.2432C11.9342 14.2306 11.9667 14.2242 11.9996 14.2242C12.0325 14.2242 12.0651 14.2306 12.0954 14.2432C12.1258 14.2558 12.1534 14.2743 12.1766 14.2976L13.5906 12.8836ZM13.5546 15.6766C13.6013 15.7235 13.6276 15.7869 13.6276 15.8531C13.6276 15.9193 13.6013 15.9827 13.5546 16.0296L14.9696 17.4436C15.1786 17.2347 15.3443 16.9866 15.4574 16.7136C15.5704 16.4407 15.6286 16.1481 15.6286 15.8526C15.6286 15.5571 15.5704 15.2645 15.4574 14.9916C15.3443 14.7186 15.1786 14.4705 14.9696 14.2616L13.5546 15.6766ZM18.8226 13.5906C19.0316 13.3817 19.1973 13.1336 19.3104 12.8606C19.4234 12.5877 19.4816 12.2951 19.4816 11.9996C19.4816 11.7041 19.4234 11.4115 19.3104 11.1386C19.1973 10.8656 19.0316 10.6175 18.8226 10.4086L17.4086 11.8226C17.4319 11.8458 17.4504 11.8734 17.463 11.9038C17.4756 11.9342 17.4821 11.9667 17.4821 11.9996C17.4821 12.0325 17.4756 12.065 17.463 12.0954C17.4504 12.1258 17.4319 12.1534 17.4086 12.1766L18.8226 13.5906ZM14.2626 14.9696C14.4716 15.1785 14.7196 15.3443 14.9926 15.4573C15.2656 15.5704 15.5581 15.6286 15.8536 15.6286C16.1491 15.6286 16.4417 15.5704 16.7147 15.4573C16.9876 15.3443 17.2357 15.1785 17.4446 14.9696L16.0296 13.5546C15.9828 13.6013 15.9193 13.6275 15.8531 13.6275C15.787 13.6275 15.7235 13.6013 15.6766 13.5546L14.2626 14.9696ZM12.8826 10.4086C12.6737 10.6175 12.5079 10.8656 12.3949 11.1386C12.2818 11.4115 12.2236 11.7041 12.2236 11.9996C12.2236 12.2951 12.2818 12.5877 12.3949 12.8606C12.5079 13.1336 12.6737 13.3807 12.8826 13.5896L14.2976 12.1766C14.2743 12.1534 14.2559 12.1258 14.2433 12.0954C14.2307 12.065 14.2242 12.0325 14.2242 11.9996C14.2242 11.9667 14.2307 11.9342 14.2433 11.9038C14.2559 11.8734 14.2743 11.8458 14.2976 11.8226L12.8826 10.4086ZM15.6766 10.4436C15.7235 10.3969 15.787 10.3707 15.8531 10.3707C15.9193 10.3707 15.9828 10.3969 16.0296 10.4436L17.4446 9.0296C17.2357 8.82066 16.9876 8.65493 16.7147 8.54185C16.4417 8.42878 16.1491 8.37058 15.8536 8.37058C15.5581 8.37058 15.2656 8.42878 14.9926 8.54185C14.7196 8.65493 14.4716 8.82066 14.2626 9.0296L15.6766 10.4436ZM13.5906 5.1766C13.3817 4.96766 13.1326 4.80193 12.8597 4.68885C12.5867 4.57578 12.2941 4.51758 11.9986 4.51758C11.7031 4.51758 11.4106 4.57578 11.1376 4.68885C10.8646 4.80193 10.6166 4.96766 10.4076 5.1766L11.8216 6.5906C11.8448 6.56732 11.8724 6.54884 11.9028 6.53624C11.9332 6.52364 11.9657 6.51715 11.9986 6.51715C12.0315 6.51715 12.0641 6.52364 12.0944 6.53624C12.1248 6.54884 12.1524 6.56732 12.1756 6.5906L13.5906 5.1766ZM14.9686 9.7366C15.1776 9.52767 15.3433 9.27963 15.4564 9.00664C15.5694 8.73366 15.6276 8.44107 15.6276 8.1456C15.6276 7.85012 15.5694 7.55754 15.4564 7.28455C15.3433 7.01157 15.1776 6.76353 14.9686 6.5546L13.5556 7.9696C13.6023 8.01646 13.6276 8.07993 13.6276 8.1461C13.6276 8.21227 13.6023 8.27574 13.5556 8.3226L14.9696 9.7366H14.9686ZM10.4076 11.1156C10.6166 11.3245 10.8646 11.4903 11.1376 11.6033C11.4106 11.7164 11.7031 11.7746 11.9986 11.7746C12.2941 11.7746 12.5867 11.7164 12.8597 11.6033C13.1326 11.4903 13.3817 11.3245 13.5906 11.1156L12.1756 9.7016C12.1524 9.72488 12.1248 9.74335 12.0944 9.75595C12.0641 9.76856 12.0315 9.77504 11.9986 9.77504C11.9657 9.77504 11.9332 9.76856 11.9028 9.75595C11.8724 9.74335 11.8448 9.72488 11.8216 9.7016L10.4076 11.1156ZM10.4426 8.3226C10.3959 8.27574 10.3697 8.21227 10.3697 8.1461C10.3697 8.07993 10.3959 8.01646 10.4426 7.9696L9.02962 6.5546C8.82069 6.76353 8.65495 7.01157 8.54188 7.28455C8.4288 7.55754 8.3706 7.85012 8.3706 8.1456C8.3706 8.44107 8.4288 8.73366 8.54188 9.00664C8.65495 9.27963 8.82069 9.52767 9.02962 9.7366L10.4436 8.3226H10.4426ZM11.1146 13.5906C11.3236 13.3817 11.4893 13.1336 11.6024 12.8606C11.7154 12.5877 11.7736 12.2951 11.7736 11.9996C11.7736 11.7041 11.7154 11.4115 11.6024 11.1386C11.4893 10.8656 11.3236 10.6175 11.1146 10.4086L9.70062 11.8226C9.7239 11.8458 9.74237 11.8734 9.75498 11.9038C9.76758 11.9342 9.77407 11.9667 9.77407 11.9996C9.77407 12.0325 9.76758 12.065 9.75498 12.0954C9.74237 12.1258 9.7249 12.1534 9.70162 12.1766L11.1146 13.5906ZM6.55462 14.9696C6.97654 15.3913 7.54862 15.6281 8.14512 15.6281C8.74162 15.6281 9.3137 15.3913 9.73562 14.9696L8.32162 13.5546C8.27476 13.6013 8.21129 13.6275 8.14512 13.6275C8.07895 13.6275 8.01648 13.6013 7.96962 13.5546L6.55562 14.9696H6.55462ZM7.96962 10.4436C8.01648 10.3969 8.07895 10.3707 8.14512 10.3707C8.21129 10.3707 8.27476 10.3969 8.32162 10.4436L9.73662 9.0296C9.52769 8.82066 9.27965 8.65493 9.00666 8.54185C8.73368 8.42878 8.4411 8.37058 8.14562 8.37058C7.85014 8.37058 7.55756 8.42878 7.28458 8.54185C7.01159 8.65493 6.76355 8.82066 6.55462 9.0296L7.96962 10.4436ZM5.17562 10.4086C4.96669 10.6175 4.80095 10.8656 4.68788 11.1386C4.5748 11.4115 4.5166 11.7041 4.5166 11.9996C4.5166 12.2951 4.5748 12.5877 4.68788 12.8606C4.80095 13.1336 4.96669 13.3817 5.17562 13.5906L6.58962 12.1766C6.56634 12.1534 6.54787 12.1258 6.53526 12.0954C6.52266 12.065 6.51617 12.0325 6.51617 11.9996C6.51617 11.9667 6.52266 11.9342 6.53526 11.9038C6.54787 11.8734 6.56734 11.8458 6.59062 11.8226L5.17562 10.4086Z" fill="white"/>
</g>
</svg>
