<svg width="24" height="24" viewBox="0 0 24 24" fill="none" xmlns="http://www.w3.org/2000/svg">
<path fill-rule="evenodd" clip-rule="evenodd" d="M15.1798 15.3844C15.2817 15.4693 15.413 15.5102 15.5451 15.4982C15.6771 15.4862 15.7989 15.4222 15.8838 15.3204L18.3838 12.3204C18.4586 12.2306 18.4996 12.1173 18.4996 12.0004C18.4996 11.8835 18.4586 11.7703 18.3838 11.6804L15.8838 8.68042C15.8424 8.62819 15.7909 8.58478 15.7324 8.55274C15.674 8.5207 15.6097 8.50067 15.5434 8.49384C15.4771 8.487 15.41 8.4935 15.3463 8.51295C15.2825 8.5324 15.2233 8.56441 15.172 8.60709C15.1208 8.64977 15.0787 8.70227 15.048 8.76149C15.0174 8.8207 14.9989 8.88545 14.9937 8.95191C14.9884 9.01838 14.9965 9.08522 15.0175 9.14851C15.0385 9.21179 15.0719 9.27024 15.1158 9.32042L17.3488 12.0004L15.1158 14.6804C15.031 14.7823 14.9901 14.9137 15.0021 15.0457C15.0141 15.1777 15.078 15.2995 15.1798 15.3844ZM8.81981 8.61642C8.71795 8.53159 8.58658 8.49068 8.45456 8.50268C8.32255 8.51468 8.2007 8.57861 8.11581 8.68042L5.61581 11.6804C5.54098 11.7703 5.5 11.8835 5.5 12.0004C5.5 12.1173 5.54098 12.2306 5.61581 12.3204L8.11581 15.3204C8.15725 15.3726 8.20872 15.4161 8.26718 15.4481C8.32565 15.4801 8.38993 15.5002 8.45625 15.507C8.52257 15.5138 8.58959 15.5073 8.65336 15.4879C8.71713 15.4684 8.77637 15.4364 8.82759 15.3938C8.8788 15.3511 8.92097 15.2986 8.9516 15.2394C8.98223 15.1801 9.00071 15.1154 9.00595 15.0489C9.01119 14.9825 9.00308 14.9156 8.98211 14.8523C8.96113 14.7891 8.92771 14.7306 8.88381 14.6804L6.65081 12.0004L8.88381 9.32042C8.96864 9.21856 9.00956 9.08719 8.99756 8.95517C8.98555 8.82316 8.92162 8.70131 8.81981 8.61642ZM13.4738 9.15842C13.4975 9.09547 13.5082 9.02839 13.5054 8.96119C13.5025 8.89399 13.4861 8.82806 13.4572 8.76734C13.4283 8.70662 13.3874 8.65237 13.337 8.60782C13.2866 8.56327 13.2277 8.52935 13.1639 8.50808C13.1001 8.48681 13.0327 8.47863 12.9656 8.48404C12.8986 8.48944 12.8333 8.50832 12.7738 8.53953C12.7142 8.57075 12.6615 8.61366 12.6189 8.66571C12.5763 8.71775 12.5446 8.77785 12.5258 8.84242L10.5258 14.8424C10.5021 14.9054 10.4914 14.9725 10.4943 15.0397C10.4971 15.1069 10.5135 15.1728 10.5424 15.2335C10.5714 15.2942 10.6123 15.3485 10.6626 15.393C10.713 15.4376 10.7719 15.4715 10.8357 15.4928C10.8995 15.514 10.9669 15.5222 11.034 15.5168C11.101 15.5114 11.1663 15.4925 11.2259 15.4613C11.2854 15.4301 11.3381 15.3872 11.3807 15.3351C11.4233 15.2831 11.455 15.223 11.4738 15.1584L13.4738 9.15842Z" fill="white"/>
</svg>
