<svg width="24" height="24" viewBox="0 0 24 24" fill="none" xmlns="http://www.w3.org/2000/svg">
<path fill-rule="evenodd" clip-rule="evenodd" d="M10.1459 6.14689C10.1924 6.10033 10.2475 6.06339 10.3083 6.03818C10.369 6.01297 10.4341 6 10.4999 6C10.5657 6 10.6308 6.01297 10.6916 6.03818C10.7523 6.06339 10.8075 6.10033 10.8539 6.14689L12.8539 8.14689C12.9005 8.19334 12.9374 8.24852 12.9626 8.30926C12.9878 8.37001 13.0008 8.43513 13.0008 8.50089C13.0008 8.56666 12.9878 8.63178 12.9626 8.69253C12.9374 8.75327 12.9005 8.80845 12.8539 8.85489L10.8539 10.8549C10.8075 10.9015 10.7523 10.9384 10.6916 10.9636C10.6308 10.9888 10.5657 11.0018 10.4999 11.0018C10.4341 11.0018 10.369 10.9888 10.3083 10.9636C10.2475 10.9384 10.1924 10.9015 10.1459 10.8549L8.14592 8.85489C8.09935 8.80845 8.06241 8.75327 8.0372 8.69253C8.012 8.63178 7.99902 8.56666 7.99902 8.50089C7.99902 8.43513 8.012 8.37001 8.0372 8.30926C8.06241 8.24852 8.09935 8.19334 8.14592 8.14689L10.1459 6.14689ZM13.1459 6.14689C13.1924 6.10033 13.2475 6.06339 13.3083 6.03818C13.369 6.01297 13.4341 6 13.4999 6C13.5657 6 13.6308 6.01297 13.6916 6.03818C13.7523 6.06339 13.8075 6.10033 13.8539 6.14689L15.8539 8.14689C15.9478 8.24078 16.0005 8.36812 16.0005 8.50089C16.0005 8.63367 15.9478 8.76101 15.8539 8.85489C15.76 8.94878 15.6327 9.00152 15.4999 9.00152C15.3671 9.00152 15.2398 8.94878 15.1459 8.85489L13.1459 6.85489C13.0994 6.80845 13.0624 6.75327 13.0372 6.69253C13.012 6.63178 12.999 6.56666 12.999 6.50089C12.999 6.43513 13.012 6.37001 13.0372 6.30926C13.0624 6.24851 13.0994 6.19334 13.1459 6.14689ZM9.20692 8.50089L10.4999 9.79389L11.7929 8.50089L10.4999 7.20789L9.20692 8.50089ZM6.64692 9.64689C6.74068 9.55316 6.86784 9.5005 7.00042 9.5005C7.133 9.5005 7.26015 9.55316 7.35392 9.64689L9.35392 11.6469C9.40048 11.6933 9.43742 11.7485 9.46263 11.8093C9.48784 11.87 9.50081 11.9351 9.50081 12.0009C9.50081 12.0667 9.48784 12.1318 9.46263 12.1925C9.43742 12.2533 9.40048 12.3084 9.35392 12.3549L7.35392 14.3549C7.30747 14.4015 7.2523 14.4384 7.19155 14.4636C7.13081 14.4888 7.06568 14.5018 6.99992 14.5018C6.93415 14.5018 6.86903 14.4888 6.80828 14.4636C6.74754 14.4384 6.69236 14.4015 6.64592 14.3549L4.64592 12.3549C4.59935 12.3084 4.56241 12.2533 4.5372 12.1925C4.512 12.1318 4.49902 12.0667 4.49902 12.0009C4.49902 11.9351 4.512 11.87 4.5372 11.8093C4.56241 11.7485 4.59935 11.6933 4.64592 11.6469L6.64692 9.64689ZM13.6469 9.64689C13.7407 9.55316 13.8678 9.5005 14.0004 9.5005C14.133 9.5005 14.2602 9.55316 14.3539 9.64689L16.3539 11.6469C16.4005 11.6933 16.4374 11.7485 16.4626 11.8093C16.4878 11.87 16.5008 11.9351 16.5008 12.0009C16.5008 12.0667 16.4878 12.1318 16.4626 12.1925C16.4374 12.2533 16.4005 12.3084 16.3539 12.3549L14.3539 14.3549C14.3075 14.4015 14.2523 14.4384 14.1916 14.4636C14.1308 14.4888 14.0657 14.5018 13.9999 14.5018C13.9341 14.5018 13.869 14.4888 13.8083 14.4636C13.7475 14.4384 13.6924 14.4015 13.6459 14.3549L11.6459 12.3549C11.5994 12.3084 11.5624 12.2533 11.5372 12.1925C11.512 12.1318 11.499 12.0667 11.499 12.0009C11.499 11.9351 11.512 11.87 11.5372 11.8093C11.5624 11.7485 11.5994 11.6933 11.6459 11.6469L13.6459 9.64689H13.6469ZM16.6469 9.64689C16.7407 9.55316 16.8678 9.5005 17.0004 9.5005C17.133 9.5005 17.2602 9.55316 17.3539 9.64689L19.3539 11.6469C19.4005 11.6933 19.4374 11.7485 19.4626 11.8093C19.4878 11.87 19.5008 11.9351 19.5008 12.0009C19.5008 12.0667 19.4878 12.1318 19.4626 12.1925C19.4374 12.2533 19.4005 12.3084 19.3539 12.3549L17.3539 14.3549C17.26 14.4488 17.1327 14.5015 16.9999 14.5015C16.8671 14.5015 16.7398 14.4488 16.6459 14.3549C16.552 14.261 16.4993 14.1337 16.4993 14.0009C16.4993 13.8681 16.552 13.7408 16.6459 13.6469L18.2929 12.0009L16.6459 10.3549C16.5994 10.3084 16.5624 10.2533 16.5372 10.1925C16.512 10.1318 16.499 10.0667 16.499 10.0009C16.499 9.93513 16.512 9.87001 16.5372 9.80926C16.5624 9.74852 16.6004 9.69334 16.6469 9.64689ZM5.70592 12.0009L6.99992 13.2939L8.29292 12.0009L6.99992 10.7079L5.70592 12.0009ZM12.7059 12.0009L13.9999 13.2939L15.2929 12.0009L13.9999 10.7079L12.7059 12.0009ZM9.20592 15.5009L10.4989 16.7939L11.7919 15.5009L10.4989 14.2079L9.20592 15.5009ZM10.1459 13.1469C10.2397 13.0532 10.3668 13.0005 10.4994 13.0005C10.632 13.0005 10.7592 13.0532 10.8529 13.1469L12.8529 15.1469C12.8995 15.1933 12.9364 15.2485 12.9616 15.3093C12.9868 15.37 12.9998 15.4351 12.9998 15.5009C12.9998 15.5667 12.9868 15.6318 12.9616 15.6925C12.9364 15.7533 12.8995 15.8084 12.8529 15.8549L10.8529 17.8549C10.8065 17.9015 10.7513 17.9384 10.6906 17.9636C10.6298 17.9888 10.5647 18.0018 10.4989 18.0018C10.4331 18.0018 10.368 17.9888 10.3073 17.9636C10.2465 17.9384 10.1914 17.9015 10.1449 17.8549L8.14492 15.8549C8.09835 15.8084 8.06141 15.7533 8.0362 15.6925C8.011 15.6318 7.99802 15.5667 7.99802 15.5009C7.99802 15.4351 8.011 15.37 8.0362 15.3093C8.06141 15.2485 8.09835 15.1933 8.14492 15.1469L10.1459 13.1469ZM15.1459 15.1469C15.2398 15.0531 15.3671 15.0005 15.4998 15.0006C15.6325 15.0007 15.7597 15.0535 15.8534 15.1474C15.9472 15.2413 15.9998 15.3686 15.9997 15.5012C15.9996 15.6339 15.9468 15.7611 15.8529 15.8549L13.8529 17.8549C13.759 17.9488 13.6317 18.0015 13.4989 18.0015C13.3661 18.0015 13.2388 17.9488 13.1449 17.8549C13.051 17.761 12.9983 17.6337 12.9983 17.5009C12.9983 17.3681 13.051 17.2408 13.1449 17.1469L15.1459 15.1469Z" fill="white"/>
</svg>
