<svg width="24" height="24" viewBox="0 0 24 24" fill="none" xmlns="http://www.w3.org/2000/svg">
<path fill-rule="evenodd" clip-rule="evenodd" d="M17.1465 3.14645C17.3417 2.95118 17.6583 2.95118 17.8535 3.14645L20.8535 6.14645L20.918 6.22457C21.0461 6.41865 21.0244 6.68261 20.8535 6.85348L17.8535 9.85348C17.6583 10.0487 17.3417 10.0487 17.1465 9.85348C16.9512 9.65822 16.9512 9.34171 17.1465 9.14645L19.293 6.99996H15.5C14.1193 6.99996 13 8.11925 13 9.49996V14.5C13 16.433 11.433 18 9.5 18H8.9502C8.71858 19.1411 7.70949 20 6.5 20C5.11929 20 4 18.8807 4 17.5C4 16.1193 5.11929 15 6.5 15C7.70949 15 8.71858 15.8588 8.9502 17H9.5C10.8807 17 12 15.8807 12 14.5V9.49996C12 7.56697 13.567 5.99996 15.5 5.99996H19.293L17.1465 3.85348C16.9512 3.65822 16.9512 3.34171 17.1465 3.14645ZM6.5 16C5.67157 16 5 16.6715 5 17.5C5 18.3284 5.67157 19 6.5 19C7.32843 19 8 18.3284 8 17.5C8 16.6715 7.32843 16 6.5 16Z" fill="white"/>
</svg>
