<svg width="24" height="24" viewBox="0 0 24 24" fill="none" xmlns="http://www.w3.org/2000/svg">
<path d="M12 4C13.1046 4 14 4.89543 14 6V8H16C17.1046 8 18 8.89543 18 10V14.4316L20.3516 15.3135C20.7612 15.4672 21.0228 15.8698 20.998 16.3066C20.9732 16.7437 20.6669 17.1136 20.2422 17.2197L17.8242 17.8242L17.2197 20.2422C17.1136 20.6669 16.7437 20.9732 16.3066 20.998C15.8698 21.0228 15.4672 20.7612 15.3135 20.3516L14.4316 18H10L9.7959 17.9893C8.85435 17.8938 8.1062 17.1457 8.01074 16.2041L8 16V14H6L5.7959 13.9893C4.85435 13.8938 4.1062 13.1457 4.01074 12.2041L4 12V6C4 4.89543 4.89543 4 6 4H12ZM16.25 20L17 17L20 16.25L14 14L16.25 20ZM10 9C9.44772 9 9 9.44772 9 10V16C9 16.5523 9.44772 17 10 17H14.0566L13.0635 14.3516C12.9258 13.9844 13.0157 13.5703 13.293 13.293C13.5703 13.0157 13.9844 12.9258 14.3516 13.0635L17 14.0566V10C17 9.44772 16.5523 9 16 9H10ZM6 5C5.44772 5 5 5.44772 5 6V12C5 12.5523 5.44772 13 6 13H8V10C8 8.89543 8.89543 8 10 8H13V6C13 5.44772 12.5523 5 12 5H6Z" fill="white"/>
</svg>
