<svg width="24" height="24" viewBox="0 0 24 24" fill="none" xmlns="http://www.w3.org/2000/svg">
<path d="M11 3C15.4183 3 19 6.58172 19 11C19 11.8424 18.8652 12.6528 18.623 13.415L20.3516 14.0635C20.7612 14.2172 21.0228 14.6198 20.998 15.0566C20.9732 15.4937 20.6669 15.8636 20.2422 15.9697L16.8242 16.8242L15.9697 20.2422C15.8636 20.6669 15.4937 20.9732 15.0566 20.998C14.6198 21.0228 14.2172 20.7612 14.0635 20.3516L13.416 18.625C12.6535 18.8668 11.8425 19 11 19C6.58172 19 3 15.4183 3 11C3 6.58172 6.58172 3 11 3ZM15 20L16 16L20 15L12 12L15 20ZM11 4C7.13401 4 4 7.13401 4 11C4 14.866 7.13401 18 11 18C11.7187 18 12.4109 17.8881 13.0635 17.6865L12.3604 15.8096C11.9278 15.9324 11.4719 16 11 16C8.23858 16 6 13.7614 6 11C6 8.23858 8.23858 6 11 6C13.7614 6 16 8.23858 16 11C16 11.4719 15.932 11.9277 15.8096 12.3604L17.6865 13.0635C17.8884 12.411 18 11.7187 18 11C18 7.13401 14.866 4 11 4ZM11 7C8.79086 7 7 8.79086 7 11C7 13.2091 8.79086 15 11 15C11.3481 15 11.6851 14.9533 12.0068 14.8691L11.2969 12.9746C11.1999 12.9894 11.1011 13 11 13C9.89543 13 9 12.1046 9 11C9 9.89543 9.89543 9 11 9C12.1046 9 13 9.89543 13 11C13 11.1011 12.9894 11.1999 12.9746 11.2969L14.8701 12.0078C14.954 11.6858 15 11.3483 15 11C15 8.79086 13.2091 7 11 7ZM11 10C10.4477 10 10 10.4477 10 11C10 11.5523 10.4477 12 11 12L11.002 11.999C11.0024 11.7388 11.1024 11.4836 11.293 11.293C11.4836 11.1024 11.7388 11.0024 11.999 11.002L12 11C12 10.4477 11.5523 10 11 10Z" fill="white"/>
</svg>
