<svg width="24" height="24" viewBox="0 0 24 24" fill="none" xmlns="http://www.w3.org/2000/svg">
<path fill-rule="evenodd" clip-rule="evenodd" d="M20.0003 5.5C20.0003 6.16304 19.7369 6.79893 19.268 7.26777C18.7992 7.73661 18.1633 8 17.5003 8C16.8372 8 16.2014 7.73661 15.7325 7.26777C15.2637 6.79893 15.0003 6.16304 15.0003 5.5C15.0003 4.83696 15.2637 4.20107 15.7325 3.73223C16.2014 3.26339 16.8372 3 17.5003 3C18.1633 3 18.7992 3.26339 19.268 3.73223C19.7369 4.20107 20.0003 4.83696 20.0003 5.5ZM17.5003 7C17.6973 7 17.8923 6.9612 18.0743 6.88582C18.2563 6.81044 18.4217 6.69995 18.5609 6.56066C18.7002 6.42137 18.8107 6.25601 18.8861 6.07403C18.9615 5.89204 19.0003 5.69698 19.0003 5.5C19.0003 5.30302 18.9615 5.10796 18.8861 4.92597C18.8107 4.74399 18.7002 4.57863 18.5609 4.43934C18.4217 4.30005 18.2563 4.18956 18.0743 4.11418C17.8923 4.0388 17.6973 4 17.5003 4C17.1025 4 16.7209 4.15804 16.4396 4.43934C16.1583 4.72064 16.0003 5.10218 16.0003 5.5C16.0003 5.89782 16.1583 6.27936 16.4396 6.56066C16.7209 6.84196 17.1025 7 17.5003 7ZM17.5003 16C17.6329 16 17.7601 16.0527 17.8538 16.1464C17.9476 16.2402 18.0003 16.3674 18.0003 16.5V18H19.5003C19.6329 18 19.7601 18.0527 19.8538 18.1464C19.9476 18.2402 20.0003 18.3674 20.0003 18.5C20.0003 18.6326 19.9476 18.7598 19.8538 18.8536C19.7601 18.9473 19.6329 19 19.5003 19H18.0003V20.5C18.0003 20.6326 17.9476 20.7598 17.8538 20.8536C17.7601 20.9473 17.6329 21 17.5003 21C17.3677 21 17.2405 20.9473 17.1467 20.8536C17.053 20.7598 17.0003 20.6326 17.0003 20.5V19H15.5003C15.3677 19 15.2405 18.9473 15.1467 18.8536C15.053 18.7598 15.0003 18.6326 15.0003 18.5C15.0003 18.3674 15.053 18.2402 15.1467 18.1464C15.2405 18.0527 15.3677 18 15.5003 18H17.0003V16.5C17.0003 16.3674 17.053 16.2402 17.1467 16.1464C17.2405 16.0527 17.3677 16 17.5003 16ZM8.83028 5.26L7.71328 9.17L3.78728 10.3C2.08528 10.79 2.09228 13.206 3.79728 13.686L7.71428 14.789L8.83028 18.695C9.31628 20.397 11.7283 20.397 12.2143 18.695L13.3313 14.787L17.2393 13.67C18.9413 13.184 18.9413 10.772 17.2393 10.286L13.3313 9.169L12.2143 5.261C11.7283 3.559 9.31628 3.558 8.83028 5.26ZM4.06928 12.724C3.33228 12.516 3.32928 11.474 4.06428 11.262L8.52228 9.978L9.79228 5.535C10.0023 4.8 11.0423 4.8 11.2523 5.535L12.5223 9.978L16.9643 11.247C17.6993 11.457 17.6993 12.499 16.9643 12.709L12.5223 13.978L11.2523 18.42C11.0423 19.155 10.0023 19.155 9.79228 18.42L8.52228 13.978L4.06928 12.724Z" fill="white"/>
</svg>
