<svg width="24" height="24" viewBox="0 0 24 24" fill="none" xmlns="http://www.w3.org/2000/svg">
<path fill-rule="evenodd" clip-rule="evenodd" d="M16.9504 7.05091C18.07 8.16686 18.777 9.63024 18.9554 11.2009C19.1554 12.9509 17.5954 14.0009 16.2254 14.0009H15.0004C14.7352 14.0009 14.4808 14.1063 14.2933 14.2938C14.1058 14.4813 14.0004 14.7357 14.0004 15.0009V16.2259C14.0004 17.5959 12.9504 19.1559 11.2004 18.9559C10.0906 18.828 9.0276 18.4363 8.10013 17.8136C7.17266 17.191 6.40768 16.3553 5.86912 15.3766C5.33057 14.3979 5.03407 13.3045 5.00442 12.1878C4.97477 11.0711 5.21281 9.96345 5.69866 8.95753C6.18452 7.9516 6.90407 7.07656 7.79719 6.40553C8.69031 5.7345 9.73106 5.28697 10.8325 5.10034C11.9339 4.9137 13.064 4.99338 14.1283 5.33272C15.1926 5.67206 16.1603 6.2612 16.9504 7.05091ZM17.9604 11.3149C18.0724 12.2849 17.2014 13.0009 16.2254 13.0009H15.0004C14.47 13.0009 13.9613 13.2116 13.5862 13.5867C13.2111 13.9618 13.0004 14.4705 13.0004 15.0009V16.2259C13.0004 17.2019 12.2854 18.0729 11.3144 17.9619C10.1936 17.8329 9.13188 17.3904 8.25111 16.6854C7.37033 15.9803 6.70619 15.0412 6.3349 13.9759C5.96361 12.9105 5.90022 11.762 6.152 10.6623C6.40378 9.56252 6.96053 8.55603 7.75836 7.75833C8.55618 6.96062 9.56275 6.40402 10.6625 6.15241C11.7623 5.90079 12.9108 5.96436 13.9761 6.33581C15.0414 6.70726 15.9804 7.37154 16.6853 8.25242C17.3903 9.1333 17.8325 10.1951 17.9614 11.3159M13.0004 8.00091C13.0004 8.26613 12.895 8.52048 12.7075 8.70802C12.52 8.89555 12.2656 9.00091 12.0004 9.00091C11.7352 9.00091 11.4808 8.89555 11.2933 8.70802C11.1058 8.52048 11.0004 8.26613 11.0004 8.00091C11.0004 7.73569 11.1058 7.48134 11.2933 7.2938C11.4808 7.10627 11.7352 7.00091 12.0004 7.00091C12.2656 7.00091 12.52 7.10627 12.7075 7.2938C12.895 7.48134 13.0004 7.73569 13.0004 8.00091ZM9.86641 10.5009C9.9331 10.3871 9.97664 10.2613 9.9945 10.1306C10.0124 9.99997 10.0042 9.86706 9.9705 9.73957C9.9368 9.61207 9.8782 9.49249 9.79809 9.38773C9.71798 9.28297 9.61794 9.19509 9.50373 9.12915C9.38952 9.06321 9.2634 9.02051 9.13262 9.00351C9.00184 8.98651 8.86899 8.99555 8.74171 9.0301C8.61444 9.06465 8.49526 9.12404 8.39103 9.20484C8.2868 9.28565 8.19959 9.38627 8.13441 9.50091C8.00389 9.73047 7.96947 10.0023 8.03866 10.2572C8.10784 10.512 8.27502 10.7291 8.50371 10.8612C8.7324 10.9932 9.00403 11.0294 9.25932 10.9619C9.51462 10.8945 9.73285 10.7287 9.86641 10.5009ZM15.5004 10.8669C15.3866 10.9336 15.2608 10.9771 15.1301 10.995C14.9995 11.0129 14.8666 11.0047 14.7391 10.971C14.6116 10.9373 14.492 10.8787 14.3872 10.7986C14.2825 10.7185 14.1946 10.6184 14.1286 10.5042C14.0627 10.39 14.02 10.2639 14.003 10.1331C13.986 10.0023 13.995 9.86949 14.0296 9.74222C14.0641 9.61495 14.1235 9.49577 14.2043 9.39154C14.2851 9.28731 14.3858 9.20009 14.5004 9.13491C14.73 9.00439 15.0018 8.96997 15.2567 9.03916C15.5115 9.10835 15.7286 9.27553 15.8607 9.50422C15.9927 9.7329 16.0289 10.0045 15.9614 10.2598C15.8939 10.5151 15.7282 10.7334 15.5004 10.8669ZM8.13441 14.5009C8.19959 14.6156 8.2868 14.7162 8.39103 14.797C8.49526 14.8778 8.61444 14.9372 8.74171 14.9717C8.86899 15.0063 9.00184 15.0153 9.13262 14.9983C9.2634 14.9813 9.38952 14.9386 9.50373 14.8727C9.61794 14.8067 9.71798 14.7189 9.79809 14.6141C9.8782 14.5093 9.9368 14.3898 9.9705 14.2623C10.0042 14.1348 10.0124 14.0018 9.9945 13.8712C9.97664 13.7405 9.9331 13.6147 9.86641 13.5009C9.73285 13.2731 9.51462 13.1074 9.25932 13.0399C9.00403 12.9724 8.7324 13.0086 8.50371 13.1406C8.27502 13.2727 8.10784 13.4898 8.03866 13.7446C7.96947 13.9995 8.00389 14.2714 8.13441 14.5009Z" fill="white"/>
</svg>
