<svg width="24" height="24" viewBox="0 0 24 24" fill="none" xmlns="http://www.w3.org/2000/svg">
<path fill-rule="evenodd" clip-rule="evenodd" d="M11 8V15C11 15.5304 10.7893 16.0391 10.4142 16.4142C10.0391 16.7893 9.53043 17 9 17C8.46957 17 7.96086 16.7893 7.58579 16.4142C7.21071 16.0391 7 15.5304 7 15V8C7 7.46957 7.21071 6.96086 7.58579 6.58579C7.96086 6.21071 8.46957 6 9 6C9.53043 6 10.0391 6.21071 10.4142 6.58579C10.7893 6.96086 11 7.46957 11 8ZM6 8C6 7.20435 6.31607 6.44129 6.87868 5.87868C7.44129 5.31607 8.20435 5 9 5C9.79565 5 10.5587 5.31607 11.1213 5.87868C11.6839 6.44129 12 7.20435 12 8V15C12 15.768 11.711 16.47 11.236 17H16C16.5304 17 17.0391 16.7893 17.4142 16.4142C17.7893 16.0391 18 15.5304 18 15C18 14.4696 17.7893 13.9609 17.4142 13.5858C17.0391 13.2107 16.5304 13 16 13H15.243L11.646 16.596C11.5573 16.686 11.464 16.7687 11.366 16.844C11.7768 16.3171 11.9999 15.6681 12 15V14.829L15.89 10.939C16.265 10.5637 16.4756 10.0548 16.4754 9.52429C16.4752 8.99375 16.2643 8.48502 15.889 8.11C15.5137 7.73498 15.0048 7.52441 14.4743 7.52459C13.9438 7.52478 13.435 7.73572 13.06 8.111L12 9.171V8C12 7.92133 11.997 7.84367 11.991 7.767L12.354 7.404C12.6318 7.12173 12.9627 6.89725 13.3276 6.74352C13.6926 6.58978 14.0844 6.50982 14.4804 6.50825C14.8764 6.50669 15.2688 6.58354 15.635 6.73439C16.0012 6.88524 16.3338 7.1071 16.6138 7.38716C16.8938 7.66722 17.1156 7.99995 17.2664 8.36615C17.4171 8.73235 17.4939 9.12478 17.4922 9.5208C17.4906 9.91681 17.4105 10.3086 17.2567 10.6735C17.1029 11.0384 16.8783 11.3693 16.596 11.647L16.234 12.009C17.005 12.072 17.7218 12.4305 18.2348 13.0094C18.7478 13.5884 19.0174 14.3432 18.9872 15.1161C18.957 15.8891 18.6294 16.6205 18.0728 17.1577C17.5162 17.6949 16.7736 17.9963 16 17.999H9.032L9 18C8.20435 18 7.44129 17.6839 6.87868 17.1213C6.31607 16.5587 6 15.7956 6 15V8ZM9 16C9.26522 16 9.51957 15.8946 9.70711 15.7071C9.89464 15.5196 10 15.2652 10 15C10 14.7348 9.89464 14.4804 9.70711 14.2929C9.51957 14.1054 9.26522 14 9 14C8.73478 14 8.48043 14.1054 8.29289 14.2929C8.10536 14.4804 8 14.7348 8 15C8 15.2652 8.10536 15.5196 8.29289 15.7071C8.48043 15.8946 8.73478 16 9 16Z" fill="white"/>
</svg>
