<svg width="24" height="24" viewBox="0 0 24 24" fill="none" xmlns="http://www.w3.org/2000/svg">
<path fill-rule="evenodd" clip-rule="evenodd" d="M11.498 9.55001C11.5113 9.41806 11.4716 9.28625 11.3876 9.18358C11.3037 9.0809 11.1824 9.01577 11.0505 9.00251C10.9186 8.98925 10.7867 9.02894 10.6841 9.11287C10.5814 9.19679 10.5163 9.31806 10.503 9.45001L10.447 10H9.5C9.36739 10 9.24021 10.0527 9.14645 10.1465C9.05268 10.2402 9 10.3674 9 10.5C9 10.6326 9.05268 10.7598 9.14645 10.8536C9.24021 10.9473 9.36739 11 9.5 11H10.348L10.148 13H9.5C9.36739 13 9.24021 13.0527 9.14645 13.1465C9.05268 13.2402 9 13.3674 9 13.5C9 13.6326 9.05268 13.7598 9.14645 13.8536C9.24021 13.9473 9.36739 14 9.5 14H10.047L10.002 14.45C9.98874 14.582 10.0284 14.7138 10.1124 14.8164C10.1963 14.9191 10.3176 14.9842 10.4495 14.9975C10.5814 15.0108 10.7133 14.9711 10.8159 14.8871C10.9186 14.8032 10.9837 14.682 10.997 14.55L11.053 14H12.547L12.502 14.45C12.4954 14.5153 12.5018 14.5813 12.5207 14.6442C12.5397 14.7071 12.5708 14.7656 12.6124 14.8164C12.6539 14.8673 12.7051 14.9094 12.7629 14.9405C12.8208 14.9716 12.8842 14.9909 12.9495 14.9975C13.0148 15.0041 13.0808 14.9977 13.1437 14.9788C13.2066 14.9598 13.2651 14.9287 13.3159 14.8871C13.3668 14.8456 13.4089 14.7944 13.44 14.7366C13.4711 14.6787 13.4904 14.6153 13.497 14.55L13.553 14H14.5C14.6326 14 14.7598 13.9473 14.8536 13.8536C14.9473 13.7598 15 13.6326 15 13.5C15 13.3674 14.9473 13.2402 14.8536 13.1465C14.7598 13.0527 14.6326 13 14.5 13H13.652L13.852 11H14.5C14.6326 11 14.7598 10.9473 14.8536 10.8536C14.9473 10.7598 15 10.6326 15 10.5C15 10.3674 14.9473 10.2402 14.8536 10.1465C14.7598 10.0527 14.6326 10 14.5 10H13.953L13.998 9.55001C14.0046 9.48468 13.9982 9.41869 13.9793 9.35582C13.9603 9.29295 13.9292 9.23442 13.8876 9.18358C13.8461 9.13274 13.7949 9.09058 13.7371 9.05951C13.6792 9.02844 13.6158 9.00907 13.5505 9.00251C13.4852 8.99594 13.4192 9.00231 13.3563 9.02124C13.2934 9.04018 13.2349 9.07131 13.1841 9.11287C13.1332 9.15442 13.0911 9.20558 13.06 9.26343C13.0289 9.32128 13.0096 9.38468 13.003 9.45001L12.947 10H11.453L11.498 9.55001ZM11.153 13L11.353 11H12.848L12.648 13H11.153Z" fill="white"/>
<path fill-rule="evenodd" clip-rule="evenodd" d="M8 6C7.46957 6 6.96086 6.21071 6.58579 6.58579C6.21071 6.96086 6 7.46957 6 8V16C6 16.5304 6.21071 17.0391 6.58579 17.4142C6.96086 17.7893 7.46957 18 8 18H16C16.5304 18 17.0391 17.7893 17.4142 17.4142C17.7893 17.0391 18 16.5304 18 16V8C18 7.46957 17.7893 6.96086 17.4142 6.58579C17.0391 6.21071 16.5304 6 16 6H8ZM7 8C7 7.73478 7.10536 7.48043 7.29289 7.29289C7.48043 7.10536 7.73478 7 8 7H16C16.2652 7 16.5196 7.10536 16.7071 7.29289C16.8946 7.48043 17 7.73478 17 8V16C17 16.2652 16.8946 16.5196 16.7071 16.7071C16.5196 16.8946 16.2652 17 16 17H8C7.73478 17 7.48043 16.8946 7.29289 16.7071C7.10536 16.5196 7 16.2652 7 16V8Z" fill="white"/>
</svg>
