<svg width="24" height="24" viewBox="0 0 24 24" fill="none" xmlns="http://www.w3.org/2000/svg">
<path d="M11.293 11.293C11.5742 11.0118 11.9951 10.9241 12.3652 11.0693L20.3652 14.2119C20.7608 14.3673 21.0151 14.756 20.999 15.1807C20.9829 15.6054 20.7002 15.9736 20.2939 16.0986L17.085 17.085L16.0986 20.2939C15.9736 20.7002 15.6054 20.9829 15.1807 20.999C14.756 21.0151 14.3673 20.7608 14.2119 20.3652L11.0693 12.3652C10.9241 11.9951 11.0118 11.5742 11.293 11.293ZM15.1426 20L16.2861 16.2861L20 15.1426L12 12L15.1426 20ZM16.5 4C17.8807 4 19 5.11929 19 6.5V11.5C19 11.7761 18.7761 12 18.5 12C18.2239 12 18 11.7761 18 11.5V6.5C18 5.67157 17.3284 5 16.5 5H6.5C5.67157 5 5 5.67157 5 6.5V16.5C5 17.3284 5.67157 18 6.5 18H11.5C11.7761 18 12 18.2239 12 18.5C12 18.7761 11.7761 19 11.5 19H6.5C5.11929 19 4 17.8807 4 16.5V6.5C4 5.11929 5.11929 4 6.5 4H16.5Z" fill="white"/>
</svg>
