<svg width="153" height="40" viewBox="0 0 153 40" fill="none" xmlns="http://www.w3.org/2000/svg">
<path d="M19.0239 23.1704C19.0239 23.5552 18.9557 23.9681 18.8194 24.409C18.6912 24.8499 18.4747 25.2588 18.1701 25.6356C17.8735 26.0123 17.4847 26.329 17.0037 26.5855C16.5227 26.834 15.9334 26.9583 15.236 26.9583H3.36726C3.1428 26.9583 2.93436 26.9182 2.74196 26.8381C2.54956 26.7579 2.38121 26.6497 2.23691 26.5134C2.10063 26.3691 1.9924 26.2007 1.91224 26.0083C1.83207 25.8159 1.79199 25.6075 1.79199 25.383V11.2897C1.79199 11.0733 1.83207 10.8688 1.91224 10.6764C1.9924 10.484 2.10063 10.3157 2.23691 10.1714C2.38121 10.0271 2.54956 9.91488 2.74196 9.83472C2.93436 9.75455 3.1428 9.71447 3.36726 9.71447H13.8291C14.2139 9.71447 14.6267 9.78261 15.0676 9.91889C15.5086 10.0552 15.9174 10.2756 16.2942 10.5802C16.679 10.8769 16.9956 11.2657 17.2442 11.7467C17.5007 12.2277 17.629 12.8169 17.629 13.5143V14.1036C17.629 14.6567 17.5368 15.254 17.3524 15.8953C17.168 16.5286 16.8714 17.1299 16.4625 17.6991C16.8153 17.9155 17.144 18.176 17.4486 18.4807C17.7612 18.7853 18.0338 19.138 18.2663 19.5389C18.4988 19.9397 18.6832 20.3927 18.8194 20.8977C18.9557 21.4028 19.0239 21.9599 19.0239 22.5692V23.1704ZM15.8974 22.5692C15.8974 22.1603 15.8332 21.7956 15.705 21.4749C15.5767 21.1462 15.3963 20.8656 15.1638 20.6332C14.9314 20.4007 14.6508 20.2243 14.3221 20.1041C13.9934 19.9758 13.6246 19.9117 13.2158 19.9117H6.16909V16.7611H11.8089C12.2177 16.7611 12.5865 16.701 12.9152 16.5807C13.2438 16.4525 13.5244 16.2721 13.7569 16.0396C13.9894 15.8071 14.1658 15.5305 14.286 15.2099C14.4143 14.8812 14.4784 14.5124 14.4784 14.1036V13.5143C14.4784 13.0654 14.262 12.8409 13.8291 12.8409H4.91849V23.8318H15.236C15.2921 23.8318 15.3602 23.8278 15.4404 23.8198C15.5206 23.8118 15.5927 23.7877 15.6569 23.7476C15.721 23.7075 15.7771 23.6394 15.8252 23.5432C15.8733 23.447 15.8974 23.3147 15.8974 23.1464V22.5692ZM32.7805 17.0858H25.7458C25.321 17.0858 25.0003 17.194 24.7838 17.4105C24.5674 17.6189 24.4592 17.9275 24.4592 18.3364V26.9583H21.3327V18.3364C21.3327 17.7993 21.4008 17.3183 21.5371 16.8934C21.6734 16.4685 21.8537 16.0957 22.0782 15.7751C22.3107 15.4464 22.5752 15.1698 22.8719 14.9453C23.1685 14.7128 23.4771 14.5245 23.7978 14.3802C24.1265 14.2359 24.4552 14.1316 24.7838 14.0675C25.1205 13.9954 25.4332 13.9593 25.7218 13.9593H32.7805V17.0858ZM38.0234 11.2897H34.8969V8.46387H38.0234V11.2897ZM38.0234 26.9583H34.8969V13.9593H38.0234V26.9583ZM55.2913 22.5692C55.2913 23.1063 55.2231 23.5913 55.0869 24.0242C54.9506 24.4491 54.7702 24.8259 54.5457 25.1546C54.3213 25.4752 54.0607 25.7518 53.7641 25.9843C53.4675 26.2087 53.1548 26.3931 52.8262 26.5374C52.5055 26.6817 52.1768 26.79 51.8401 26.8621C51.5114 26.9262 51.1988 26.9583 50.9022 26.9583H45.2624C44.7253 26.9583 44.2443 26.8902 43.8194 26.7539C43.3945 26.6176 43.0178 26.4372 42.6891 26.2128C42.3684 25.9803 42.0918 25.7157 41.8594 25.4191C41.6349 25.1225 41.4505 24.8138 41.3062 24.4932C41.1619 24.1645 41.0537 23.8358 40.9815 23.5071C40.9174 23.1704 40.8853 22.8578 40.8853 22.5692V18.3364C40.8853 17.5347 41.0296 16.8573 41.3182 16.3042C41.6148 15.743 41.9796 15.29 42.4125 14.9453C42.8534 14.5926 43.3304 14.3401 43.8435 14.1878C44.3565 14.0354 44.8295 13.9593 45.2624 13.9593H50.9022V17.0858H45.2865C44.8696 17.0858 44.553 17.194 44.3365 17.4105C44.1201 17.6189 44.0118 17.9275 44.0118 18.3364V22.5451C44.0118 22.97 44.116 23.2907 44.3245 23.5071C44.5409 23.7236 44.8536 23.8318 45.2624 23.8318H50.9022C51.327 23.8318 51.6437 23.7236 51.8521 23.5071C52.0606 23.2907 52.1648 22.978 52.1648 22.5692V8.46387H55.2913V22.5692ZM72.4149 28.2089C72.4149 28.746 72.3468 29.227 72.2105 29.6519C72.0742 30.0848 71.8938 30.4616 71.6693 30.7823C71.4449 31.1109 71.1843 31.3875 70.8877 31.612C70.5911 31.8445 70.2784 32.0329 69.9498 32.1772C69.6291 32.3215 69.3004 32.4257 68.9637 32.4898C68.635 32.562 68.3224 32.598 68.0258 32.598H62.386V29.4715H68.0258C68.4506 29.4715 68.7673 29.3633 68.9757 29.1469C69.1842 28.9304 69.2884 28.6178 69.2884 28.2089V18.3364C69.2884 17.9275 69.1842 17.6189 68.9757 17.4105C68.7673 17.194 68.4506 17.0858 68.0258 17.0858H62.386C62.0012 17.0858 61.6966 17.206 61.4721 17.4465C61.2477 17.679 61.1354 17.9756 61.1354 18.3364V22.5692C61.1354 22.978 61.2437 23.2907 61.4601 23.5071C61.6766 23.7236 61.9932 23.8318 62.4101 23.8318H68.0258V26.9583H62.386C62.0894 26.9583 61.7768 26.9262 61.4481 26.8621C61.1194 26.79 60.7907 26.6817 60.462 26.5374C60.1414 26.3931 59.8327 26.2087 59.5361 25.9843C59.2395 25.7518 58.979 25.4752 58.7545 25.1546C58.53 24.8259 58.3496 24.4491 58.2134 24.0242C58.0771 23.5913 58.0089 23.1063 58.0089 22.5692V18.3364C58.0089 18.0398 58.041 17.7271 58.1051 17.3984C58.1773 17.0697 58.2855 16.7451 58.4298 16.4244C58.5741 16.0957 58.7585 15.7831 58.983 15.4865C59.2154 15.1898 59.492 14.9293 59.8127 14.7048C60.1414 14.4804 60.5182 14.3 60.943 14.1637C61.3679 14.0274 61.8489 13.9593 62.386 13.9593H68.0258C68.3224 13.9593 68.635 13.9954 68.9637 14.0675C69.3004 14.1316 69.6291 14.2359 69.9498 14.3802C70.2784 14.5245 70.5911 14.7128 70.8877 14.9453C71.1843 15.1698 71.4449 15.4464 71.6693 15.7751C71.8938 16.0957 72.0742 16.4685 72.2105 16.8934C72.3468 17.3183 72.4149 17.7993 72.4149 18.3364V28.2089ZM89.2619 18.2642C89.2619 18.6971 89.1858 19.1661 89.0335 19.6712C88.8811 20.1682 88.6326 20.6332 88.2879 21.0661C87.9512 21.4909 87.5063 21.8477 86.9531 22.1363C86.408 22.4249 85.7426 22.5692 84.957 22.5692H79.3172V19.599H84.957C85.3819 19.599 85.7105 19.4707 85.943 19.2142C86.1755 18.9497 86.2918 18.625 86.2918 18.2402C86.2918 17.8313 86.1595 17.5107 85.8949 17.2782C85.6384 17.0457 85.3257 16.9295 84.957 16.9295H79.3172C78.8924 16.9295 78.5637 17.0617 78.3312 17.3263C78.0987 17.5828 77.9825 17.9035 77.9825 18.2883V22.6534C77.9825 23.0702 78.1107 23.3949 78.3673 23.6274C78.6318 23.8599 78.9565 23.9761 79.3413 23.9761H84.957V26.9583H79.3172C78.8843 26.9583 78.4154 26.8821 77.9103 26.7298C77.4133 26.5775 76.9483 26.333 76.5154 25.9963C76.0905 25.6516 75.7338 25.2067 75.4452 24.6615C75.1566 24.1084 75.0123 23.439 75.0123 22.6534V18.2642C75.0123 17.8313 75.0885 17.3664 75.2408 16.8693C75.3931 16.3643 75.6376 15.8993 75.9743 15.4744C76.319 15.0415 76.7639 14.6808 77.3091 14.3922C77.8622 14.1036 78.5316 13.9593 79.3172 13.9593H84.957C85.3899 13.9593 85.8548 14.0354 86.3519 14.1878C86.8569 14.3401 87.3219 14.5886 87.7468 14.9333C88.1797 15.27 88.5404 15.7149 88.829 16.2681C89.1176 16.8132 89.2619 17.4786 89.2619 18.2642Z" fill="white"/>
<path d="M7.62515 2.87691L7.41351 3.27479L7.2188 3.30019H6.95637L6.81245 3.32559L6.7024 3.30019L6.16906 3.34252L6.01668 3.30866L5.98282 3.31712C5.92638 3.3397 5.83044 3.36227 5.69499 3.38485H5.39023L5.3225 3.35945H5.29711C5.24067 3.35945 5.15884 3.37356 5.0516 3.40178C4.96695 3.42435 4.86254 3.43564 4.73838 3.43564L4.60293 3.40178L4.57753 3.50337H4.47594L4.45055 3.90125L4.49287 3.96897L4.47594 4.09596V4.31606C4.47594 4.54746 4.45337 4.70266 4.40822 4.78167L4.47594 4.87479L4.42515 5.1203L4.47594 5.18802L4.38282 5.32347V5.39119L4.33203 5.48432L4.36589 5.67056L4.34049 6.02612L4.2897 6.18696C4.29534 6.19261 4.29817 6.20671 4.29817 6.22929C4.29817 6.218 4.2897 6.25469 4.27277 6.33934C4.27277 6.34499 4.27559 6.35627 4.28123 6.37321C4.28123 6.39014 4.28123 6.40425 4.28123 6.41553C4.28123 6.47761 4.26148 6.53687 4.22198 6.59331L4.24737 6.71183C4.24737 6.75134 4.24455 6.77673 4.23891 6.78802L4.23044 6.81342C4.21915 6.84728 4.21351 6.88114 4.21351 6.915C4.21351 7.02223 4.2248 7.11253 4.24737 7.1859C4.12321 7.20848 4.05266 7.21977 4.03573 7.21977C3.98494 7.21977 3.94261 7.21412 3.90875 7.20283L3.89182 7.19437C3.74508 7.16051 3.67171 7.02506 3.67171 6.78802C3.67735 6.7598 3.68018 6.7203 3.68018 6.6695C3.68018 6.62435 3.67453 6.56227 3.66325 6.48326C3.65196 6.3986 3.64631 6.33652 3.64631 6.29701C3.64631 6.24058 3.65478 6.19261 3.67171 6.1531L3.70557 5.80601C3.66042 5.74393 3.63785 5.69313 3.63785 5.65363C3.63785 5.64234 3.64349 5.61977 3.65478 5.5859C3.6322 5.54075 3.62092 5.50689 3.62092 5.48432C3.62092 5.43917 3.63503 5.40248 3.66325 5.37426C3.66325 5.32347 3.68582 5.25292 3.73097 5.16262C3.71968 5.11747 3.71404 5.0695 3.71404 5.01871C3.75355 5.01871 3.7733 4.99896 3.7733 4.95945C3.7733 4.94816 3.76765 4.93123 3.75637 4.90866C3.74508 4.88044 3.73944 4.85222 3.73944 4.824L3.76483 4.85786L3.73097 4.78167C3.73097 4.67444 3.74508 4.58132 3.7733 4.50231V4.2568L3.73097 4.07903L3.7733 3.74887L3.73097 3.50337L3.7479 3.41871L3.62092 3.42717L3.5278 3.47797L3.46007 3.4695V3.50337C3.34155 3.50337 3.22586 3.4949 3.11298 3.47797L3.08758 3.54569L2.75743 3.43564L2.31721 3.42717L2.03785 3.50337C1.8121 3.31148 1.69922 3.17321 1.69922 3.08855C1.69922 3.03776 1.70769 2.98696 1.72462 2.93617V2.96157L1.91087 2.80072L2.07171 2.80919L2.63891 2.91077L2.78282 2.86844L3.21457 2.87691L3.55319 2.91924L3.7733 2.83458L3.84949 2.61448L4.18811 2.69913L4.20504 2.6822L4.22198 2.7076L4.34049 2.85151L4.37436 2.85998L4.49287 2.81765L4.73838 2.87691C4.98106 2.83176 5.12497 2.80919 5.17012 2.80919C5.23785 2.80919 5.30839 2.82329 5.38176 2.85151C5.39869 2.85151 5.43256 2.85434 5.48335 2.85998C5.56236 2.84869 5.61316 2.84305 5.63573 2.84305H5.69499L5.98282 2.80919L6.22832 2.85151L6.26219 2.86844L6.38917 2.82612L6.56695 2.86844L6.99023 2.85151L7.17647 2.87691H7.62515ZM10.8193 6.915C10.8193 7.14075 10.6979 7.25363 10.4552 7.25363C10.3367 7.25363 10.2492 7.20566 10.1928 7.10971C10.1364 7.0307 10.0884 6.88114 10.0489 6.66104V6.54252C10.0658 6.5143 10.0743 6.48608 10.0743 6.45786C10.0743 6.44657 10.0715 6.43246 10.0658 6.41553L9.9473 6.23776L10.032 6.07691L9.9981 5.89913L10.032 5.79754V5.68749L10.0489 5.5859L10.015 5.43352L10.0489 5.35733V5.07797L10.0574 4.71395L9.9981 4.43458L10.032 4.33299L9.9727 4.12135L9.90498 4.18061L9.71873 4.2568L9.46476 4.5785L9.36318 4.57003L9.2108 4.81553L9.1854 4.91712L9.09228 4.95945L8.99916 5.10336L8.95683 5.19649L8.86371 5.49278L8.71133 5.67903L8.67746 5.79754L8.59281 5.86527L8.55894 6.06844L8.38963 6.22082L8.36424 6.53405H8.28804L8.26265 6.58485L8.11027 6.84728L7.96635 6.99966L7.83937 7.16897L7.70392 7.12664H7.59387L7.49228 6.99119L7.39916 6.68643L7.38223 6.23776L7.35683 6.09384L7.38223 5.92453L7.36529 5.52664L7.43302 5.50971L7.47535 4.92559L7.50921 4.81553L7.48381 4.63776L7.52614 4.61236L7.56 4.34146L7.59387 4.24834L7.56 4.12982L7.5854 4.08749L7.56847 4.0621L7.59387 3.82506L7.52614 3.7658L7.5854 3.64728L7.57693 3.40178L7.48381 3.15628L7.55154 3.08008L7.49228 2.85151V2.71606L7.46688 2.6568L7.42455 2.38591L7.38223 2.25892L7.25524 2.01342L7.34836 1.8949L7.43302 1.75098H7.50921C7.63337 1.75098 7.72649 1.79613 7.78857 1.88643L7.90709 1.97956L7.95789 2.13194L8.08487 2.24199L8.05947 2.36051L8.11873 2.53829L8.11027 2.55522L8.1272 2.57215L8.11873 2.85151L8.1272 3.224L8.18646 3.46104L8.14413 3.56262L8.16106 3.70654L8.11873 3.82506L8.14413 4.02823L8.1018 4.19754L8.11873 4.23141L8.1018 4.74781L8.1272 4.86633L8.0764 4.92559L8.05101 5.20495L8.01715 5.33194L8.05101 5.56051L8.01715 5.62823L8.00868 5.79754C8.07076 5.78061 8.1018 5.74675 8.1018 5.69596L8.16953 5.62823L8.22879 5.51818L8.24572 5.35733L8.33884 5.22188L8.38963 5.05257L8.51662 4.91712L8.55048 4.75627L8.63513 4.74781V4.67162L8.6436 4.57003L8.74519 4.51077V4.44305L8.82984 4.42612L8.84677 4.29067L8.83831 4.22294L8.99069 4.15522L9.03302 4.12135L9.01609 4.0367L9.09228 4.0113L9.15154 3.86739H9.25312L9.34625 3.80813C9.34625 3.76862 9.34907 3.7404 9.35471 3.72347L9.44783 3.68114C9.54942 3.59649 9.64536 3.54569 9.73566 3.52876V3.51183C9.8824 3.43846 9.98399 3.40178 10.0404 3.40178C10.1251 3.40178 10.2013 3.44128 10.269 3.5203C10.3311 3.54287 10.3706 3.5852 10.3875 3.64728L10.4637 3.69807L10.4891 3.81659L10.6161 4.0113V4.68855L10.6076 4.98485L10.6415 5.06104V5.68749L10.6161 5.79754V5.96686L10.6415 6.1531L10.6076 6.31395C10.6302 6.3986 10.6443 6.46915 10.6499 6.52559L10.7431 6.61871V6.68643L10.7769 6.71183C10.8052 6.80777 10.8193 6.8755 10.8193 6.915ZM14.4104 6.30548C14.4104 6.37321 14.3596 6.45786 14.258 6.55945C14.2298 6.64975 14.1875 6.72312 14.131 6.77955L14.0802 6.78802L13.9871 6.94887L13.8347 6.97426L13.6739 7.07585L13.5892 7.22823L13.4961 7.2113C13.434 7.23952 13.3832 7.25645 13.3437 7.26209L13.2929 7.33828C13.276 7.33264 13.2506 7.32982 13.2167 7.32982C13.1434 7.32982 13.0728 7.38061 13.0051 7.4822L12.8866 7.38061C12.864 7.38626 12.8302 7.38908 12.785 7.38908C12.7116 7.38908 12.6496 7.37779 12.5988 7.35522H12.4548L12.3871 7.31289C12.1727 7.27902 12.0372 7.19719 11.9808 7.06738V7.04199L11.8792 6.99119L11.8284 6.84728L11.7268 6.77955V6.65257L11.6252 6.28008L11.6421 5.97532L11.676 5.83987V5.66209L11.7183 5.52664L11.7099 5.46739L11.7691 5.3658L11.7522 5.38273C11.7522 5.33194 11.7663 5.27832 11.7945 5.22188V5.17955L11.7691 4.97638C11.7691 4.88044 11.8115 4.79578 11.8961 4.72241C11.9018 4.71112 11.9046 4.69419 11.9046 4.67162C11.9046 4.64904 11.8933 4.60389 11.8707 4.53617C11.8538 4.4628 11.8453 4.41201 11.8453 4.38379C11.8453 4.31606 11.8622 4.24552 11.8961 4.17215C11.9413 4.23987 12.0062 4.27374 12.0908 4.27374H12.1162C12.1275 4.25116 12.1529 4.22576 12.1924 4.19754C12.2376 4.05645 12.2996 3.93793 12.3787 3.84199L12.4125 3.80813C12.4125 3.78555 12.4294 3.72065 12.4633 3.61342H12.531L12.548 3.57109L12.6157 3.55416C12.6439 3.50901 12.6608 3.48361 12.6665 3.47797C12.6778 3.46668 12.7399 3.43 12.8527 3.36792C12.8753 3.32841 12.9092 3.29172 12.9543 3.25786C12.9769 3.24657 13.0051 3.23529 13.039 3.224L13.0728 3.17321C13.2252 3.12241 13.3212 3.09702 13.3607 3.09702C13.4058 3.09702 13.4481 3.1083 13.4876 3.13088L13.53 3.12241L13.5892 3.15628C13.657 3.20707 13.7247 3.2494 13.7924 3.28326L13.9363 3.39331V3.42717C14.0661 3.52876 14.131 3.67268 14.131 3.85892L14.1056 3.94358L14.131 4.22294L14.0548 4.27374L13.9702 4.49384L13.8093 4.67162L13.8009 4.80707C13.6203 4.93687 13.4538 5.04128 13.3014 5.1203C13.2506 5.19931 13.1716 5.23881 13.0644 5.23881H13.039L12.8781 5.3404H12.7427L12.5395 5.42506L12.3871 5.34887H12.3702C12.3589 5.39402 12.3476 5.46174 12.3363 5.55204L12.2686 5.60284L12.2601 5.70442L12.2093 5.84834C12.2263 5.98379 12.2347 6.07127 12.2347 6.11077L12.2009 6.13617C12.2009 6.20954 12.1981 6.26315 12.1924 6.29701C12.1924 6.30266 12.1896 6.31112 12.1839 6.32241C12.1839 6.3337 12.1839 6.34216 12.1839 6.34781C12.1839 6.39296 12.2065 6.42964 12.2517 6.45786C12.2686 6.52559 12.2968 6.56791 12.3363 6.58485L12.3956 6.63564L12.5818 6.68643V6.71183L12.6496 6.72876L12.9374 6.74569L13.1067 6.7203L13.1913 6.66104L13.2421 6.6441L13.3268 6.51712L13.3691 6.50865L13.5808 6.44093C13.6033 6.40142 13.64 6.36756 13.6908 6.33934L13.7162 6.29701C13.8291 6.27444 13.894 6.21518 13.9109 6.11924C13.9899 6.04022 14.0915 6.00072 14.2157 6.00072H14.2496C14.3568 6.12488 14.4104 6.22647 14.4104 6.30548ZM13.5723 3.86739C13.5723 3.85045 13.5638 3.81659 13.5469 3.7658L13.5046 3.75733L13.4876 3.7658C13.482 3.7658 13.4707 3.7658 13.4538 3.7658C13.4425 3.77144 13.4312 3.77426 13.4199 3.77426C13.4143 3.77426 13.4058 3.77144 13.3945 3.7658C13.3832 3.7658 13.3748 3.7658 13.3691 3.7658L13.2845 3.82506L13.2083 3.83352L13.166 3.85045L13.022 4.0367L12.9289 4.10442L12.7935 4.34146L12.7173 4.39225C12.7003 4.4882 12.6608 4.57003 12.5988 4.63776L12.5649 4.69702C12.627 4.65751 12.6975 4.63776 12.7765 4.63776L12.8358 4.61236L12.8612 4.53617L12.9797 4.54463L13.0474 4.44305H13.0982L13.1913 4.47691L13.2337 4.34993H13.2929V4.2568L13.403 4.23141L13.4284 4.20601L13.4453 4.12982L13.5554 3.96897C13.5667 3.94075 13.5723 3.90689 13.5723 3.86739Z" fill="white"/>
<path d="M6.36971 37.201H3.93972C3.87754 37.201 3.81019 37.1941 3.73765 37.1802C3.66684 37.1647 3.59603 37.1414 3.52522 37.1103C3.45614 37.0792 3.38964 37.0395 3.32574 36.9911C3.26184 36.941 3.20485 36.8815 3.15476 36.8124C3.1064 36.7416 3.06754 36.6604 3.03818 36.5689C3.00882 36.4756 2.99414 36.3711 2.99414 36.2554V34.4316C2.99414 34.3694 3.00105 34.3029 3.01487 34.2321C3.03041 34.1596 3.05373 34.0888 3.08482 34.0197C3.1159 33.9489 3.15649 33.8815 3.20657 33.8176C3.25666 33.7537 3.31624 33.6976 3.38533 33.6492C3.45614 33.5992 3.53731 33.5594 3.62884 33.5301C3.72038 33.5007 3.824 33.486 3.93972 33.486H6.36971V34.1596H3.93972C3.85164 34.1596 3.78428 34.1829 3.73765 34.2295C3.69102 34.2762 3.6677 34.3453 3.6677 34.4368V36.2554C3.6677 36.3418 3.69102 36.4091 3.73765 36.4575C3.78601 36.5041 3.85336 36.5274 3.93972 36.5274H6.36971V37.201ZM9.94216 36.2554C9.94216 36.3711 9.92748 36.4756 9.89812 36.5689C9.86876 36.6604 9.8299 36.7416 9.78154 36.8124C9.73319 36.8815 9.67706 36.941 9.61315 36.9911C9.54925 37.0395 9.4819 37.0792 9.41109 37.1103C9.342 37.1414 9.27119 37.1647 9.19866 37.1802C9.12785 37.1941 9.06049 37.201 8.99659 37.201H7.78159C7.68833 37.201 7.58643 37.1846 7.4759 37.1518C7.36537 37.1189 7.26261 37.0654 7.16762 36.9911C7.07436 36.9151 6.99577 36.8176 6.93187 36.6984C6.8697 36.5775 6.83861 36.4298 6.83861 36.2554V35.3435C6.83861 35.1708 6.8697 35.0249 6.93187 34.9057C6.99577 34.7848 7.07436 34.6872 7.16762 34.613C7.26261 34.537 7.36537 34.4826 7.4759 34.4497C7.58643 34.4169 7.68833 34.4005 7.78159 34.4005H8.99659C9.1693 34.4005 9.3161 34.4316 9.43699 34.4938C9.55789 34.556 9.65547 34.6345 9.72973 34.7295C9.804 34.8228 9.85753 34.9247 9.89035 35.0352C9.92489 35.1458 9.94216 35.2485 9.94216 35.3435V36.2554ZM9.2686 35.3487C9.2686 35.2554 9.24529 35.1863 9.19866 35.1414C9.15203 35.0965 9.08467 35.0741 8.99659 35.0741H7.78677C7.69697 35.0741 7.62875 35.0974 7.58212 35.144C7.53548 35.1889 7.51217 35.2554 7.51217 35.3435V36.2554C7.51217 36.3435 7.53548 36.4108 7.58212 36.4575C7.62875 36.5041 7.69697 36.5274 7.78677 36.5274H8.99659C9.08812 36.5274 9.15634 36.5041 9.20125 36.4575C9.24615 36.4108 9.2686 36.3435 9.2686 36.2554V35.3487ZM13.6208 37.201H12.9472V35.6466C12.9472 35.5585 12.9317 35.4799 12.9006 35.4109C12.8712 35.3401 12.8307 35.2796 12.7788 35.2295C12.727 35.1794 12.6657 35.1414 12.5949 35.1155C12.5258 35.0879 12.4507 35.0741 12.3695 35.0741H11.1908V37.201H10.5172V34.7347C10.5172 34.6881 10.5259 34.6449 10.5431 34.6052C10.5604 34.5637 10.5846 34.5283 10.6157 34.499C10.6468 34.4679 10.683 34.4437 10.7245 34.4264C10.7659 34.4092 10.81 34.4005 10.8566 34.4005H12.3747C12.4593 34.4005 12.5483 34.41 12.6415 34.429C12.7365 34.448 12.8298 34.4791 12.9213 34.5223C13.0146 34.5637 13.1027 34.6173 13.1856 34.6829C13.2702 34.7468 13.3445 34.8254 13.4084 34.9186C13.474 35.0102 13.5258 35.1164 13.5638 35.2373C13.6018 35.3582 13.6208 35.4946 13.6208 35.6466V37.201ZM17.315 37.201H16.6414V35.6466C16.6414 35.5585 16.6259 35.4799 16.5948 35.4109C16.5654 35.3401 16.5249 35.2796 16.4731 35.2295C16.4212 35.1794 16.3599 35.1414 16.2891 35.1155C16.22 35.0879 16.1449 35.0741 16.0637 35.0741H14.885V37.201H14.2114V34.7347C14.2114 34.6881 14.2201 34.6449 14.2374 34.6052C14.2546 34.5637 14.2788 34.5283 14.3099 34.499C14.341 34.4679 14.3772 34.4437 14.4187 34.4264C14.4601 34.4092 14.5042 34.4005 14.5508 34.4005H16.0689C16.1535 34.4005 16.2425 34.41 16.3357 34.429C16.4307 34.448 16.524 34.4791 16.6155 34.5223C16.7088 34.5637 16.7969 34.6173 16.8798 34.6829C16.9644 34.7468 17.0387 34.8254 17.1026 34.9186C17.1682 35.0102 17.22 35.1164 17.258 35.2373C17.296 35.3582 17.315 35.4946 17.315 35.6466V37.201ZM20.9185 35.328C20.9185 35.4212 20.9021 35.5223 20.8693 35.6311C20.8365 35.7381 20.783 35.8383 20.7087 35.9316C20.6362 36.0231 20.5403 36.1 20.4211 36.1621C20.3037 36.2243 20.1604 36.2554 19.9911 36.2554H18.7761V35.6155H19.9911C20.0826 35.6155 20.1534 35.5879 20.2035 35.5326C20.2536 35.4756 20.2787 35.4057 20.2787 35.3228C20.2787 35.2347 20.2502 35.1656 20.1932 35.1155C20.1379 35.0654 20.0705 35.0404 19.9911 35.0404H18.7761C18.6846 35.0404 18.6138 35.0689 18.5637 35.1259C18.5136 35.1812 18.4885 35.2502 18.4885 35.3331V36.2735C18.4885 36.3633 18.5162 36.4333 18.5714 36.4834C18.6284 36.5335 18.6984 36.5585 18.7813 36.5585H19.9911V37.201H18.7761C18.6828 37.201 18.5818 37.1846 18.473 37.1518C18.3659 37.1189 18.2658 37.0663 18.1725 36.9937C18.081 36.9195 18.0041 36.8236 17.9419 36.7062C17.8798 36.587 17.8487 36.4428 17.8487 36.2735V35.328C17.8487 35.2347 17.8651 35.1345 17.8979 35.0274C17.9307 34.9186 17.9834 34.8185 18.0559 34.7269C18.1302 34.6337 18.226 34.556 18.3435 34.4938C18.4626 34.4316 18.6069 34.4005 18.7761 34.4005H19.9911C20.0844 34.4005 20.1845 34.4169 20.2916 34.4497C20.4004 34.4826 20.5006 34.5361 20.5921 34.6104C20.6854 34.6829 20.7631 34.7788 20.8253 34.8979C20.8875 35.0154 20.9185 35.1587 20.9185 35.328ZM24.0843 37.201H22.2579C22.1646 37.201 22.0627 37.1846 21.9522 37.1518C21.8417 37.1189 21.7389 37.0654 21.6439 36.9911C21.5506 36.9151 21.4721 36.8176 21.4082 36.6984C21.346 36.5775 21.3149 36.4298 21.3149 36.2554V35.3435C21.3149 35.2796 21.3218 35.2122 21.3356 35.1414C21.3512 35.0706 21.3745 35.0007 21.4056 34.9316C21.4367 34.8608 21.4764 34.7934 21.5247 34.7295C21.5748 34.6656 21.6344 34.6095 21.7035 34.5611C21.7743 34.5128 21.8555 34.4739 21.947 34.4446C22.0385 34.4152 22.1422 34.4005 22.2579 34.4005H24.0843V35.0741H22.2579C22.1698 35.0741 22.1024 35.0965 22.0558 35.1414C22.0109 35.1863 21.9885 35.2554 21.9885 35.3487V36.2554C21.9885 36.3435 22.0118 36.4108 22.0584 36.4575C22.105 36.5041 22.1733 36.5274 22.2631 36.5274H24.0843V37.201ZM27.1878 35.0741H26.0117V37.201H25.3303V35.0741H24.4547V34.4005H25.3303V33.486H26.0117V34.4005H27.1878V35.0741ZM28.3147 33.8254H27.6412V33.2166H28.3147V33.8254ZM28.3147 37.201H27.6412V34.4005H28.3147V37.201ZM32.0659 37.201H31.3924V35.6466C31.3924 35.5585 31.3768 35.4799 31.3457 35.4109C31.3164 35.3401 31.2758 35.2796 31.224 35.2295C31.1722 35.1794 31.1109 35.1414 31.0401 35.1155C30.971 35.0879 30.8958 35.0741 30.8147 35.0741H29.6359V37.201H28.9624V34.7347C28.9624 34.6881 28.971 34.6449 28.9883 34.6052C29.0056 34.5637 29.0297 34.5283 29.0608 34.499C29.0919 34.4679 29.1282 34.4437 29.1696 34.4264C29.2111 34.4092 29.2551 34.4005 29.3018 34.4005H30.8199C30.9045 34.4005 30.9934 34.41 31.0867 34.429C31.1817 34.448 31.2749 34.4791 31.3665 34.5223C31.4597 34.5637 31.5478 34.6173 31.6307 34.6829C31.7153 34.7468 31.7896 34.8254 31.8535 34.9186C31.9191 35.0102 31.9709 35.1164 32.0089 35.2373C32.0469 35.3582 32.0659 35.4946 32.0659 35.6466V37.201ZM35.7032 37.4704C35.7032 37.5861 35.6885 37.6897 35.6591 37.7813C35.6298 37.8745 35.5909 37.9557 35.5425 38.0248C35.4942 38.0956 35.438 38.1552 35.3741 38.2035C35.3102 38.2536 35.2429 38.2942 35.1721 38.3253C35.103 38.3564 35.0322 38.3788 34.9596 38.3927C34.8888 38.4082 34.8215 38.416 34.7576 38.416H33.5426V37.7424H34.7576C34.8491 37.7424 34.9173 37.7191 34.9622 37.6725C35.0071 37.6258 35.0296 37.5585 35.0296 37.4704V35.3435C35.0296 35.2554 35.0071 35.1889 34.9622 35.144C34.9173 35.0974 34.8491 35.0741 34.7576 35.0741H33.5426C33.4597 35.0741 33.3941 35.1 33.3457 35.1518C33.2973 35.2019 33.2732 35.2658 33.2732 35.3435V36.2554C33.2732 36.3435 33.2965 36.4108 33.3431 36.4575C33.3897 36.5041 33.458 36.5274 33.5478 36.5274H34.7576V37.201H33.5426C33.4787 37.201 33.4113 37.1941 33.3405 37.1802C33.2697 37.1647 33.1989 37.1414 33.1281 37.1103C33.059 37.0792 32.9925 37.0395 32.9286 36.9911C32.8647 36.941 32.8086 36.8815 32.7602 36.8124C32.7119 36.7416 32.673 36.6604 32.6436 36.5689C32.6143 36.4756 32.5996 36.3711 32.5996 36.2554V35.3435C32.5996 35.2796 32.6065 35.2122 32.6203 35.1414C32.6359 35.0706 32.6592 35.0007 32.6903 34.9316C32.7214 34.8608 32.7611 34.7934 32.8094 34.7295C32.8595 34.6656 32.9191 34.6095 32.9882 34.5611C33.059 34.5128 33.1402 34.4739 33.2317 34.4446C33.3232 34.4152 33.4269 34.4005 33.5426 34.4005H34.7576C34.8215 34.4005 34.8888 34.4083 34.9596 34.4238C35.0322 34.4377 35.103 34.4601 35.1721 34.4912C35.2429 34.5223 35.3102 34.5629 35.3741 34.613C35.438 34.6613 35.4942 34.7209 35.5425 34.7917C35.5909 34.8608 35.6298 34.9411 35.6591 35.0326C35.6885 35.1242 35.7032 35.2278 35.7032 35.3435V37.4704ZM41.7859 36.8616C41.7859 36.91 41.7773 36.9549 41.76 36.9963C41.7427 37.0378 41.7185 37.074 41.6875 37.1051C41.6581 37.1345 41.6227 37.1578 41.5812 37.1751C41.5398 37.1923 41.4949 37.201 41.4465 37.201H39.0165C38.9544 37.201 38.887 37.1941 38.8145 37.1802C38.7437 37.1647 38.6729 37.1414 38.602 37.1103C38.533 37.0792 38.4665 37.0395 38.4026 36.9911C38.3387 36.941 38.2817 36.8815 38.2316 36.8124C38.1832 36.7416 38.1444 36.6604 38.115 36.5689C38.0857 36.4756 38.071 36.3711 38.071 36.2554V34.4316C38.071 34.3694 38.0779 34.3029 38.0917 34.2321C38.1072 34.1596 38.1306 34.0888 38.1616 34.0197C38.1927 33.9489 38.2333 33.8815 38.2834 33.8176C38.3335 33.7537 38.3931 33.6976 38.4622 33.6492C38.533 33.5992 38.6141 33.5594 38.7057 33.5301C38.7972 33.5007 38.9008 33.486 39.0165 33.486H41.7548V34.1596H39.0165C38.9285 34.1596 38.8611 34.1829 38.8145 34.2295C38.7678 34.2762 38.7445 34.3453 38.7445 34.4368V36.2554C38.7445 36.3418 38.7678 36.4091 38.8145 36.4575C38.8628 36.5041 38.9302 36.5274 39.0165 36.5274H41.1123V35.6829H39.3196V35.0041H41.4465C41.4949 35.0041 41.5398 35.0136 41.5812 35.0326C41.6227 35.0499 41.6581 35.0741 41.6875 35.1052C41.7185 35.1363 41.7427 35.1725 41.76 35.214C41.7773 35.2537 41.7859 35.2969 41.7859 35.3435V36.8616ZM45.304 36.2735C45.304 36.3668 45.2875 36.4678 45.2547 36.5766C45.2219 36.6837 45.1684 36.7839 45.0941 36.8771C45.0216 36.9687 44.9257 37.0455 44.8066 37.1077C44.6891 37.1699 44.5458 37.201 44.3765 37.201H43.1615C43.0683 37.201 42.9672 37.1846 42.8584 37.1518C42.7513 37.1189 42.6512 37.0663 42.5579 36.9937C42.4664 36.9195 42.3895 36.8236 42.3273 36.7062C42.2652 36.587 42.2341 36.4428 42.2341 36.2735C42.2341 36.1803 42.2505 36.0792 42.2833 35.9704C42.3161 35.8616 42.3688 35.7615 42.4413 35.6699C42.5156 35.5767 42.6114 35.4989 42.7289 35.4368C42.8481 35.3746 42.9923 35.3435 43.1615 35.3435H44.3765V35.986H43.1615C43.07 35.986 42.9992 36.0145 42.9491 36.0715C42.899 36.1267 42.874 36.1958 42.874 36.2787C42.874 36.3668 42.9025 36.4359 42.9595 36.486C43.0182 36.5343 43.0873 36.5585 43.1667 36.5585H44.3765C44.468 36.5585 44.5389 36.5309 44.5889 36.4756C44.639 36.4203 44.6641 36.3513 44.6641 36.2684V35.328C44.6641 35.2399 44.6364 35.1699 44.5812 35.1181C44.5276 35.0663 44.4594 35.0404 44.3765 35.0404H42.8973V34.4005H44.3765C44.4698 34.4005 44.5699 34.4169 44.677 34.4497C44.7858 34.4826 44.886 34.5361 44.9775 34.6104C45.0708 34.6829 45.1485 34.7788 45.2107 34.8979C45.2729 35.0154 45.304 35.1587 45.304 35.328V36.2735ZM48.9671 36.2554C48.9671 36.3711 48.9524 36.4756 48.923 36.5689C48.8937 36.6604 48.8548 36.7416 48.8065 36.8124C48.7581 36.8815 48.702 36.941 48.6381 36.9911C48.5742 37.0395 48.5068 37.0792 48.436 37.1103C48.3669 37.1414 48.297 37.1647 48.2262 37.1802C48.1554 37.1941 48.088 37.201 48.0241 37.201H46.8091V36.5274H48.0241C48.1139 36.5274 48.1813 36.5041 48.2262 36.4575C48.2711 36.4108 48.2935 36.3435 48.2935 36.2554V35.3487C48.2935 35.2554 48.2702 35.1863 48.2236 35.1414C48.1787 35.0965 48.1122 35.0741 48.0241 35.0741H46.8143C46.7227 35.0741 46.6537 35.0974 46.607 35.144C46.5604 35.1889 46.5371 35.2554 46.5371 35.3435V38.0766H45.8635V35.3435C45.8635 35.2278 45.8782 35.1242 45.9076 35.0326C45.9369 34.9411 45.9758 34.8608 46.0241 34.7917C46.0742 34.7209 46.1312 34.6613 46.1951 34.613C46.259 34.5629 46.3255 34.5223 46.3946 34.4912C46.4654 34.4601 46.5362 34.4377 46.607 34.4238C46.6796 34.4083 46.7469 34.4005 46.8091 34.4005H48.0241C48.1398 34.4005 48.2434 34.4152 48.335 34.4446C48.4265 34.4739 48.5068 34.5128 48.5759 34.5611C48.6467 34.6095 48.7063 34.6656 48.7546 34.7295C48.8047 34.7934 48.8453 34.8608 48.8764 34.9316C48.9075 35.0007 48.9299 35.0706 48.9438 35.1414C48.9593 35.2122 48.9671 35.2796 48.9671 35.3435V36.2554ZM55.0498 36.3849C55.0498 36.4678 55.0351 36.5568 55.0058 36.6518C54.9782 36.7468 54.9315 36.8348 54.8659 36.916C54.802 36.9972 54.7182 37.0654 54.6146 37.1207C54.511 37.1742 54.384 37.201 54.2338 37.201H51.6769C51.6285 37.201 51.5836 37.1923 51.5421 37.1751C51.5007 37.1578 51.4644 37.1345 51.4333 37.1051C51.404 37.074 51.3807 37.0378 51.3634 36.9963C51.3461 36.9549 51.3375 36.91 51.3375 36.8616V33.8254C51.3375 33.7788 51.3461 33.7347 51.3634 33.6933C51.3807 33.6518 51.404 33.6156 51.4333 33.5845C51.4644 33.5534 51.5007 33.5292 51.5421 33.5119C51.5836 33.4947 51.6285 33.486 51.6769 33.486H53.9307C54.0136 33.486 54.1025 33.5007 54.1975 33.5301C54.2925 33.5594 54.3806 33.6069 54.4618 33.6726C54.5447 33.7365 54.6129 33.8202 54.6664 33.9238C54.7217 34.0275 54.7493 34.1544 54.7493 34.3047V34.4316C54.7493 34.5508 54.7295 34.6794 54.6897 34.8176C54.65 34.954 54.5861 35.0836 54.498 35.2062C54.574 35.2528 54.6448 35.309 54.7105 35.3746C54.7778 35.4402 54.8365 35.5162 54.8866 35.6026C54.9367 35.6889 54.9764 35.7865 55.0058 35.8953C55.0351 36.0041 55.0498 36.1241 55.0498 36.2554V36.3849ZM54.3763 36.2554C54.3763 36.1673 54.3625 36.0887 54.3348 36.0197C54.3072 35.9488 54.2683 35.8884 54.2182 35.8383C54.1682 35.7882 54.1077 35.7502 54.0369 35.7243C53.9661 35.6967 53.8866 35.6829 53.7986 35.6829H52.2805V35.0041H53.4955C53.5835 35.0041 53.663 34.9912 53.7338 34.9653C53.8046 34.9376 53.8651 34.8988 53.9151 34.8487C53.9652 34.7986 54.0032 34.739 54.0291 34.6699C54.0568 34.5991 54.0706 34.5197 54.0706 34.4316V34.3047C54.0706 34.208 54.0239 34.1596 53.9307 34.1596H52.011V36.5274H54.2338C54.2459 36.5274 54.2606 36.5265 54.2778 36.5248C54.2951 36.5231 54.3106 36.5179 54.3245 36.5093C54.3383 36.5006 54.3504 36.486 54.3607 36.4652C54.3711 36.4445 54.3763 36.416 54.3763 36.3797V36.2554ZM58.5757 35.328C58.5757 35.4212 58.5592 35.5223 58.5264 35.6311C58.4936 35.7381 58.4401 35.8383 58.3658 35.9316C58.2933 36.0231 58.1974 36.1 58.0783 36.1621C57.9608 36.2243 57.8175 36.2554 57.6482 36.2554H56.4332V35.6155H57.6482C57.7397 35.6155 57.8106 35.5879 57.8606 35.5326C57.9107 35.4756 57.9358 35.4057 57.9358 35.3228C57.9358 35.2347 57.9073 35.1656 57.8503 35.1155C57.795 35.0654 57.7277 35.0404 57.6482 35.0404H56.4332C56.3417 35.0404 56.2709 35.0689 56.2208 35.1259C56.1707 35.1812 56.1457 35.2502 56.1457 35.3331V36.2735C56.1457 36.3633 56.1733 36.4333 56.2286 36.4834C56.2856 36.5335 56.3555 36.5585 56.4384 36.5585H57.6482V37.201H56.4332C56.34 37.201 56.2389 37.1846 56.1301 37.1518C56.023 37.1189 55.9229 37.0663 55.8296 36.9937C55.7381 36.9195 55.6612 36.8236 55.599 36.7062C55.5369 36.587 55.5058 36.4428 55.5058 36.2735V35.328C55.5058 35.2347 55.5222 35.1345 55.555 35.0274C55.5878 34.9186 55.6405 34.8185 55.713 34.7269C55.7873 34.6337 55.8831 34.556 56.0006 34.4938C56.1198 34.4316 56.264 34.4005 56.4332 34.4005H57.6482C57.7415 34.4005 57.8416 34.4169 57.9487 34.4497C58.0575 34.4826 58.1577 34.5361 58.2492 34.6104C58.3425 34.6829 58.4202 34.7788 58.4824 34.8979C58.5446 35.0154 58.5757 35.1587 58.5757 35.328ZM61.5756 35.0741H60.3994V37.201H59.7181V35.0741H58.8425V34.4005H59.7181V33.486H60.3994V34.4005H61.5756V35.0741ZM66.6299 34.4005C66.5228 34.6406 66.4071 34.8772 66.2827 35.1103C66.1584 35.3418 66.028 35.5611 65.8915 35.7684C65.7568 35.9756 65.6187 36.1673 65.477 36.3435C65.3354 36.5179 65.1947 36.669 65.0548 36.7968C64.9166 36.9229 64.781 37.0222 64.648 37.0948C64.5168 37.1656 64.3924 37.201 64.275 37.201C64.2266 37.201 64.1817 37.1923 64.1403 37.1751C64.0988 37.1578 64.0626 37.1345 64.0315 37.1051C64.0004 37.074 63.9762 37.0378 63.9589 36.9963C63.9417 36.9549 63.933 36.91 63.933 36.8616V35.6052L62.5963 37.0999C62.5617 37.1345 62.5237 37.1604 62.4823 37.1777C62.4426 37.1932 62.4011 37.201 62.3579 37.201C62.3113 37.201 62.2673 37.1923 62.2258 37.1751C62.1861 37.1578 62.1507 37.1345 62.1196 37.1051C62.0885 37.074 62.0635 37.0378 62.0445 36.9963C62.0272 36.9549 62.0186 36.91 62.0186 36.8616V34.4005H62.6921V35.9963L64.0341 34.4964C64.0824 34.448 64.1394 34.4178 64.205 34.4057C64.2724 34.3919 64.338 34.3988 64.4019 34.4264C64.4658 34.4523 64.5159 34.4938 64.5522 34.5508C64.5902 34.606 64.6092 34.6674 64.6092 34.7347V36.3357C64.7543 36.1958 64.8855 36.0482 65.003 35.8927C65.1204 35.7373 65.2292 35.5775 65.3294 35.4135C65.4313 35.2477 65.5263 35.0801 65.6143 34.9109C65.7041 34.7399 65.7914 34.5698 65.876 34.4005H66.6299ZM69.8759 35.328C69.8759 35.4212 69.8595 35.5223 69.8267 35.6311C69.7939 35.7381 69.7403 35.8383 69.6661 35.9316C69.5935 36.0231 69.4977 36.1 69.3785 36.1621C69.2611 36.2243 69.1177 36.2554 68.9485 36.2554H67.7335V35.6155H68.9485C69.04 35.6155 69.1108 35.5879 69.1609 35.5326C69.211 35.4756 69.236 35.4057 69.236 35.3228C69.236 35.2347 69.2075 35.1656 69.1505 35.1155C69.0953 35.0654 69.0279 35.0404 68.9485 35.0404H67.7335C67.6419 35.0404 67.5711 35.0689 67.521 35.1259C67.4709 35.1812 67.4459 35.2502 67.4459 35.3331V36.2735C67.4459 36.3633 67.4735 36.4333 67.5288 36.4834C67.5858 36.5335 67.6557 36.5585 67.7386 36.5585H68.9485V37.201H67.7335C67.6402 37.201 67.5392 37.1846 67.4304 37.1518C67.3233 37.1189 67.2231 37.0663 67.1298 36.9937C67.0383 36.9195 66.9615 36.8236 66.8993 36.7062C66.8371 36.587 66.806 36.4428 66.806 36.2735V35.328C66.806 35.2347 66.8224 35.1345 66.8552 35.0274C66.8881 34.9186 66.9407 34.8185 67.0133 34.7269C67.0875 34.6337 67.1834 34.556 67.3008 34.4938C67.42 34.4316 67.5642 34.4005 67.7335 34.4005H68.9485C69.0417 34.4005 69.1419 34.4169 69.249 34.4497C69.3578 34.4826 69.4579 34.5361 69.5495 34.6104C69.6427 34.6829 69.7205 34.7788 69.7826 34.8979C69.8448 35.0154 69.8759 35.1587 69.8759 35.328ZM73.3421 35.328C73.3421 35.4212 73.3257 35.5223 73.2929 35.6311C73.2601 35.7381 73.2066 35.8383 73.1323 35.9316C73.0598 36.0231 72.9639 36.1 72.8447 36.1621C72.7273 36.2243 72.5839 36.2554 72.4147 36.2554H71.1997V35.6155H72.4147C72.5062 35.6155 72.577 35.5879 72.6271 35.5326C72.6772 35.4756 72.7023 35.4057 72.7023 35.3228C72.7023 35.2347 72.6738 35.1656 72.6168 35.1155C72.5615 35.0654 72.4941 35.0404 72.4147 35.0404H71.1997C71.1082 35.0404 71.0374 35.0689 70.9873 35.1259C70.9372 35.1812 70.9121 35.2502 70.9121 35.3331V36.2735C70.9121 36.3633 70.9398 36.4333 70.995 36.4834C71.052 36.5335 71.122 36.5585 71.2049 36.5585H72.4147V37.201H71.1997C71.1064 37.201 71.0054 37.1846 70.8966 37.1518C70.7895 37.1189 70.6893 37.0663 70.5961 36.9937C70.5045 36.9195 70.4277 36.8236 70.3655 36.7062C70.3033 36.587 70.2723 36.4428 70.2723 36.2735V35.328C70.2723 35.2347 70.2887 35.1345 70.3215 35.0274C70.3543 34.9186 70.407 34.8185 70.4795 34.7269C70.5538 34.6337 70.6496 34.556 70.7671 34.4938C70.8862 34.4316 71.0304 34.4005 71.1997 34.4005H72.4147C72.508 34.4005 72.6081 34.4169 72.7152 34.4497C72.824 34.4826 72.9242 34.5361 73.0157 34.6104C73.109 34.6829 73.1867 34.7788 73.2489 34.8979C73.311 35.0154 73.3421 35.1587 73.3421 35.328ZM76.899 37.201H76.2255V35.6466C76.2255 35.5585 76.2099 35.4799 76.1788 35.4109C76.1495 35.3401 76.1089 35.2796 76.0571 35.2295C76.0053 35.1794 75.944 35.1414 75.8732 35.1155C75.8041 35.0879 75.7289 35.0741 75.6478 35.0741H74.469V37.201H73.7955V34.7347C73.7955 34.6881 73.8041 34.6449 73.8214 34.6052C73.8387 34.5637 73.8628 34.5283 73.8939 34.499C73.925 34.4679 73.9613 34.4437 74.0027 34.4264C74.0442 34.4092 74.0882 34.4005 74.1349 34.4005H75.653C75.7376 34.4005 75.8265 34.41 75.9198 34.429C76.0148 34.448 76.108 34.4791 76.1996 34.5223C76.2928 34.5637 76.3809 34.6173 76.4638 34.6829C76.5484 34.7468 76.6227 34.8254 76.6866 34.9186C76.7522 35.0102 76.804 35.1164 76.842 35.2373C76.88 35.3582 76.899 35.4946 76.899 35.6466V37.201ZM82.9973 35.6466C82.9973 35.8729 82.9576 36.081 82.8782 36.2709C82.8005 36.4609 82.6925 36.625 82.5543 36.7632C82.4162 36.8996 82.2521 37.0067 82.0621 37.0844C81.8722 37.1621 81.6658 37.201 81.443 37.201H79.6244C79.576 37.201 79.5311 37.1923 79.4897 37.1751C79.4482 37.1578 79.4119 37.1345 79.3808 37.1051C79.3515 37.074 79.3282 37.0378 79.3109 36.9963C79.2936 36.9549 79.285 36.91 79.285 36.8616V33.8254C79.285 33.7788 79.2936 33.7347 79.3109 33.6933C79.3282 33.6518 79.3515 33.6156 79.3808 33.5845C79.4119 33.5534 79.4482 33.5292 79.4897 33.5119C79.5311 33.4947 79.576 33.486 79.6244 33.486H81.443C81.6658 33.486 81.8722 33.5249 82.0621 33.6026C82.2521 33.6803 82.4162 33.7883 82.5543 33.9264C82.6925 34.0629 82.8005 34.227 82.8782 34.4187C82.9576 34.6086 82.9973 34.8159 82.9973 35.0404V35.6466ZM82.3238 35.0404C82.3238 34.9091 82.3022 34.7891 82.259 34.6803C82.2176 34.5715 82.158 34.4791 82.0803 34.4031C82.0025 34.3254 81.9093 34.2658 81.8005 34.2244C81.6934 34.1812 81.5742 34.1596 81.443 34.1596H79.9586V36.5274H81.443C81.5742 36.5274 81.6934 36.5067 81.8005 36.4652C81.9093 36.4221 82.0025 36.3625 82.0803 36.2865C82.158 36.2088 82.2176 36.1164 82.259 36.0093C82.3022 35.9005 82.3238 35.7796 82.3238 35.6466V35.0404ZM86.5957 35.328C86.5957 35.4212 86.5793 35.5223 86.5465 35.6311C86.5137 35.7381 86.4601 35.8383 86.3859 35.9316C86.3133 36.0231 86.2175 36.1 86.0983 36.1621C85.9809 36.2243 85.8375 36.2554 85.6683 36.2554H84.4533V35.6155H85.6683C85.7598 35.6155 85.8306 35.5879 85.8807 35.5326C85.9308 35.4756 85.9558 35.4057 85.9558 35.3228C85.9558 35.2347 85.9273 35.1656 85.8703 35.1155C85.8151 35.0654 85.7477 35.0404 85.6683 35.0404H84.4533C84.3617 35.0404 84.2909 35.0689 84.2408 35.1259C84.1907 35.1812 84.1657 35.2502 84.1657 35.3331V36.2735C84.1657 36.3633 84.1933 36.4333 84.2486 36.4834C84.3056 36.5335 84.3755 36.5585 84.4584 36.5585H85.6683V37.201H84.4533C84.36 37.201 84.259 37.1846 84.1502 37.1518C84.0431 37.1189 83.9429 37.0663 83.8496 36.9937C83.7581 36.9195 83.6813 36.8236 83.6191 36.7062C83.5569 36.587 83.5258 36.4428 83.5258 36.2735V35.328C83.5258 35.2347 83.5422 35.1345 83.575 35.0274C83.6079 34.9186 83.6605 34.8185 83.7331 34.7269C83.8073 34.6337 83.9032 34.556 84.0206 34.4938C84.1398 34.4316 84.284 34.4005 84.4533 34.4005H85.6683C85.7615 34.4005 85.8617 34.4169 85.9688 34.4497C86.0776 34.4826 86.1777 34.5361 86.2693 34.6104C86.3625 34.6829 86.4403 34.7788 86.5024 34.8979C86.5646 35.0154 86.5957 35.1587 86.5957 35.328ZM89.7562 36.2554C89.7562 36.3711 89.7416 36.4756 89.7122 36.5689C89.6828 36.6604 89.644 36.7416 89.5956 36.8124C89.5473 36.8815 89.4911 36.941 89.4272 36.9911C89.3633 37.0395 89.296 37.0792 89.2252 37.1103C89.1561 37.1414 89.0853 37.1647 89.0127 37.1802C88.9419 37.1941 88.8746 37.201 88.8107 37.201H86.9869V36.5274H88.8055C88.897 36.5274 88.9661 36.5041 89.0127 36.4575C89.0594 36.4108 89.0827 36.3435 89.0827 36.2554C89.074 36.0758 88.9834 35.986 88.8107 35.986H87.7667C87.6181 35.986 87.492 35.9601 87.3884 35.9083C87.2848 35.8564 87.2002 35.7917 87.1345 35.714C87.0706 35.6362 87.024 35.5525 86.9947 35.4627C86.967 35.3729 86.9532 35.2891 86.9532 35.2114C86.9532 35.0611 86.98 34.9351 87.0335 34.8332C87.0871 34.7295 87.1544 34.6458 87.2356 34.5819C87.3168 34.518 87.4048 34.4722 87.4998 34.4446C87.5948 34.4152 87.6838 34.4005 87.7667 34.4005H89.4221V35.0741H87.7718C87.7373 35.0741 87.7097 35.0784 87.6889 35.087C87.6699 35.0939 87.6553 35.1043 87.6449 35.1181C87.6363 35.1302 87.6311 35.144 87.6294 35.1596C87.6276 35.1734 87.6268 35.1872 87.6268 35.201C87.6285 35.2287 87.6337 35.2502 87.6423 35.2658C87.6509 35.2813 87.6613 35.2926 87.6734 35.2995C87.6872 35.3064 87.7019 35.3107 87.7174 35.3124C87.7347 35.3124 87.7511 35.3124 87.7667 35.3124H88.8107C88.9834 35.3124 89.1302 35.3435 89.2511 35.4057C89.372 35.4679 89.4695 35.5464 89.5438 35.6414C89.6181 35.7347 89.6716 35.8366 89.7044 35.9471C89.739 36.0576 89.7562 36.1604 89.7562 36.2554ZM90.9142 33.8254H90.2407V33.2166H90.9142V33.8254ZM90.9142 37.201H90.2407V34.4005H90.9142V37.201ZM94.6085 37.4704C94.6085 37.5861 94.5938 37.6897 94.5644 37.7813C94.5351 37.8745 94.4962 37.9557 94.4478 38.0248C94.3995 38.0956 94.3433 38.1552 94.2794 38.2035C94.2155 38.2536 94.1482 38.2942 94.0774 38.3253C94.0083 38.3564 93.9375 38.3788 93.8649 38.3927C93.7941 38.4082 93.7268 38.416 93.6629 38.416H92.4479V37.7424H93.6629C93.7544 37.7424 93.8226 37.7191 93.8675 37.6725C93.9124 37.6258 93.9349 37.5585 93.9349 37.4704V35.3435C93.9349 35.2554 93.9124 35.1889 93.8675 35.144C93.8226 35.0974 93.7544 35.0741 93.6629 35.0741H92.4479C92.365 35.0741 92.2994 35.1 92.251 35.1518C92.2026 35.2019 92.1785 35.2658 92.1785 35.3435V36.2554C92.1785 36.3435 92.2018 36.4108 92.2484 36.4575C92.295 36.5041 92.3633 36.5274 92.4531 36.5274H93.6629V37.201H92.4479C92.384 37.201 92.3166 37.1941 92.2458 37.1802C92.175 37.1647 92.1042 37.1414 92.0334 37.1103C91.9643 37.0792 91.8978 37.0395 91.8339 36.9911C91.77 36.941 91.7139 36.8815 91.6655 36.8124C91.6172 36.7416 91.5783 36.6604 91.5489 36.5689C91.5196 36.4756 91.5049 36.3711 91.5049 36.2554V35.3435C91.5049 35.2796 91.5118 35.2122 91.5256 35.1414C91.5412 35.0706 91.5645 35.0007 91.5956 34.9316C91.6267 34.8608 91.6664 34.7934 91.7147 34.7295C91.7648 34.6656 91.8244 34.6095 91.8935 34.5611C91.9643 34.5128 92.0455 34.4739 92.137 34.4446C92.2285 34.4152 92.3322 34.4005 92.4479 34.4005H93.6629C93.7268 34.4005 93.7941 34.4083 93.8649 34.4238C93.9375 34.4377 94.0083 34.4601 94.0774 34.4912C94.1482 34.5223 94.2155 34.5629 94.2794 34.613C94.3433 34.6613 94.3995 34.7209 94.4478 34.7917C94.4962 34.8608 94.5351 34.9411 94.5644 35.0326C94.5938 35.1242 94.6085 35.2278 94.6085 35.3435V37.4704ZM98.3286 37.201H97.655V35.6466C97.655 35.5585 97.6395 35.4799 97.6084 35.4109C97.579 35.3401 97.5384 35.2796 97.4866 35.2295C97.4348 35.1794 97.3735 35.1414 97.3027 35.1155C97.2336 35.0879 97.1585 35.0741 97.0773 35.0741H95.8986V37.201H95.225V34.7347C95.225 34.6881 95.2337 34.6449 95.2509 34.6052C95.2682 34.5637 95.2924 34.5283 95.3235 34.499C95.3545 34.4679 95.3908 34.4437 95.4323 34.4264C95.4737 34.4092 95.5178 34.4005 95.5644 34.4005H97.0825C97.1671 34.4005 97.2561 34.41 97.3493 34.429C97.4443 34.448 97.5376 34.4791 97.6291 34.5223C97.7224 34.5637 97.8104 34.6173 97.8933 34.6829C97.978 34.7468 98.0522 34.8254 98.1161 34.9186C98.1818 35.0102 98.2336 35.1164 98.2716 35.2373C98.3096 35.3582 98.3286 35.4946 98.3286 35.6466V37.201ZM104.365 37.201H103.691V36.2891H101.324V37.201H100.65V35.3435C100.65 35.0724 100.697 34.8228 100.79 34.5948C100.883 34.3668 101.013 34.1708 101.178 34.0067C101.344 33.8427 101.54 33.7149 101.767 33.6233C101.993 33.5318 102.24 33.486 102.507 33.486H104.026C104.072 33.486 104.116 33.4947 104.158 33.5119C104.199 33.5292 104.235 33.5534 104.266 33.5845C104.298 33.6156 104.322 33.6518 104.339 33.6933C104.356 33.7347 104.365 33.7788 104.365 33.8254V37.201ZM101.324 35.6155H103.691V34.1596H102.507C102.487 34.1596 102.443 34.163 102.375 34.17C102.31 34.1751 102.233 34.1898 102.145 34.214C102.058 34.2382 101.967 34.2753 101.87 34.3254C101.773 34.3755 101.684 34.4446 101.603 34.5326C101.522 34.6207 101.455 34.7313 101.401 34.8642C101.349 34.9955 101.324 35.1553 101.324 35.3435V35.6155ZM108.178 37.201H107.505V35.6466C107.505 35.5585 107.489 35.4799 107.458 35.4109C107.429 35.3401 107.388 35.2796 107.336 35.2295C107.285 35.1794 107.223 35.1414 107.152 35.1155C107.083 35.0879 107.008 35.0741 106.927 35.0741H105.748V37.201H105.075V34.7347C105.075 34.6881 105.083 34.6449 105.101 34.6052C105.118 34.5637 105.142 34.5283 105.173 34.499C105.204 34.4679 105.241 34.4437 105.282 34.4264C105.323 34.4092 105.367 34.4005 105.414 34.4005H106.932C107.017 34.4005 107.106 34.41 107.199 34.429C107.294 34.448 107.387 34.4791 107.479 34.5223C107.572 34.5637 107.66 34.6173 107.743 34.6829C107.828 34.7468 107.902 34.8254 107.966 34.9186C108.031 35.0102 108.083 35.1164 108.121 35.2373C108.159 35.3582 108.178 35.4946 108.178 35.6466V37.201ZM111.841 36.2554C111.841 36.3711 111.827 36.4756 111.797 36.5689C111.768 36.6604 111.729 36.7416 111.681 36.8124C111.632 36.8815 111.576 36.941 111.512 36.9911C111.448 37.0395 111.381 37.0792 111.31 37.1103C111.241 37.1414 111.17 37.1647 111.098 37.1802C111.027 37.1941 110.96 37.201 110.896 37.201H109.681C109.565 37.201 109.461 37.1863 109.37 37.1569C109.278 37.1276 109.197 37.0887 109.126 37.0404C109.057 36.9903 108.998 36.9333 108.948 36.8694C108.899 36.8055 108.86 36.739 108.829 36.6699C108.797 36.5991 108.774 36.5283 108.759 36.4575C108.745 36.3849 108.738 36.3176 108.738 36.2554V35.3435C108.738 35.1708 108.769 35.0249 108.831 34.9057C108.895 34.7848 108.974 34.6872 109.067 34.613C109.162 34.537 109.265 34.4826 109.375 34.4497C109.486 34.4169 109.588 34.4005 109.681 34.4005H110.896V35.0741H109.686C109.596 35.0741 109.528 35.0974 109.481 35.144C109.435 35.1889 109.411 35.2554 109.411 35.3435V36.2502C109.411 36.3418 109.434 36.4108 109.479 36.4575C109.525 36.5041 109.593 36.5274 109.681 36.5274H110.896C110.987 36.5274 111.056 36.5041 111.1 36.4575C111.145 36.4108 111.168 36.3435 111.168 36.2554V33.2166H111.841V36.2554ZM117.992 35.6466C117.992 35.8729 117.952 36.081 117.872 36.2709C117.795 36.4609 117.687 36.625 117.549 36.7632C117.41 36.8996 117.246 37.0067 117.056 37.0844C116.866 37.1621 116.66 37.201 116.437 37.201H114.619C114.57 37.201 114.525 37.1923 114.484 37.1751C114.442 37.1578 114.406 37.1345 114.375 37.1051C114.346 37.074 114.322 37.0378 114.305 36.9963C114.288 36.9549 114.279 36.91 114.279 36.8616V33.8254C114.279 33.7788 114.288 33.7347 114.305 33.6933C114.322 33.6518 114.346 33.6156 114.375 33.5845C114.406 33.5534 114.442 33.5292 114.484 33.5119C114.525 33.4947 114.57 33.486 114.619 33.486H116.437C116.66 33.486 116.866 33.5249 117.056 33.6026C117.246 33.6803 117.41 33.7883 117.549 33.9264C117.687 34.0629 117.795 34.227 117.872 34.4187C117.952 34.6086 117.992 34.8159 117.992 35.0404V35.6466ZM117.318 35.0404C117.318 34.9091 117.296 34.7891 117.253 34.6803C117.212 34.5715 117.152 34.4791 117.074 34.4031C116.997 34.3254 116.903 34.2658 116.795 34.2244C116.688 34.1812 116.568 34.1596 116.437 34.1596H114.953V36.5274H116.437C116.568 36.5274 116.688 36.5067 116.795 36.4652C116.903 36.4221 116.997 36.3625 117.074 36.2865C117.152 36.2088 117.212 36.1164 117.253 36.0093C117.296 35.9005 117.318 35.7796 117.318 35.6466V35.0404ZM121.59 35.328C121.59 35.4212 121.573 35.5223 121.541 35.6311C121.508 35.7381 121.454 35.8383 121.38 35.9316C121.307 36.0231 121.212 36.1 121.092 36.1621C120.975 36.2243 120.832 36.2554 120.662 36.2554H119.447V35.6155H120.662C120.754 35.6155 120.825 35.5879 120.875 35.5326C120.925 35.4756 120.95 35.4057 120.95 35.3228C120.95 35.2347 120.921 35.1656 120.864 35.1155C120.809 35.0654 120.742 35.0404 120.662 35.0404H119.447C119.356 35.0404 119.285 35.0689 119.235 35.1259C119.185 35.1812 119.16 35.2502 119.16 35.3331V36.2735C119.16 36.3633 119.188 36.4333 119.243 36.4834C119.3 36.5335 119.37 36.5585 119.453 36.5585H120.662V37.201H119.447C119.354 37.201 119.253 37.1846 119.144 37.1518C119.037 37.1189 118.937 37.0663 118.844 36.9937C118.752 36.9195 118.675 36.8236 118.613 36.7062C118.551 36.587 118.52 36.4428 118.52 36.2735V35.328C118.52 35.2347 118.536 35.1345 118.569 35.0274C118.602 34.9186 118.655 34.8185 118.727 34.7269C118.801 34.6337 118.897 34.556 119.015 34.4938C119.134 34.4316 119.278 34.4005 119.447 34.4005H120.662C120.756 34.4005 120.856 34.4169 120.963 34.4497C121.072 34.4826 121.172 34.5361 121.263 34.6104C121.357 34.6829 121.434 34.7788 121.497 34.8979C121.559 35.0154 121.59 35.1587 121.59 35.328ZM125.385 34.4005C125.309 34.6371 125.22 34.8703 125.118 35.1C125.016 35.3297 124.899 35.549 124.766 35.758C124.635 35.9653 124.487 36.1578 124.323 36.3357C124.161 36.5119 123.98 36.6647 123.782 36.7942C123.585 36.922 123.37 37.0231 123.136 37.0973C122.905 37.1699 122.654 37.2062 122.383 37.2062C122.336 37.2062 122.292 37.1975 122.25 37.1802C122.209 37.163 122.173 37.1397 122.142 37.1103C122.111 37.0792 122.086 37.0438 122.069 37.0041C122.052 36.9626 122.043 36.9186 122.043 36.872V34.4005H122.717V36.5067C122.881 36.5067 123.038 36.4713 123.188 36.4005C123.34 36.3297 123.484 36.2364 123.618 36.1207C123.753 36.0032 123.877 35.8703 123.991 35.7217C124.107 35.5732 124.21 35.4212 124.3 35.2658C124.389 35.1086 124.465 34.9549 124.528 34.8047C124.592 34.6544 124.639 34.5197 124.67 34.4005H125.385ZM128.051 35.0041H130.416V33.486H131.09V37.201H130.416V35.6829H128.051V37.201H127.377V33.486H128.051V35.0041ZM134.68 36.2735C134.68 36.3668 134.664 36.4678 134.631 36.5766C134.598 36.6837 134.545 36.7839 134.47 36.8771C134.398 36.9687 134.302 37.0455 134.183 37.1077C134.065 37.1699 133.922 37.201 133.753 37.201H132.538C132.445 37.201 132.343 37.1846 132.235 37.1518C132.128 37.1189 132.027 37.0663 131.934 36.9937C131.843 36.9195 131.766 36.8236 131.704 36.7062C131.641 36.587 131.61 36.4428 131.61 36.2735C131.61 36.1803 131.627 36.0792 131.66 35.9704C131.692 35.8616 131.745 35.7615 131.818 35.6699C131.892 35.5767 131.988 35.4989 132.105 35.4368C132.224 35.3746 132.369 35.3435 132.538 35.3435H133.753V35.986H132.538C132.446 35.986 132.375 36.0145 132.325 36.0715C132.275 36.1267 132.25 36.1958 132.25 36.2787C132.25 36.3668 132.279 36.4359 132.336 36.486C132.394 36.5343 132.464 36.5585 132.543 36.5585H133.753C133.844 36.5585 133.915 36.5309 133.965 36.4756C134.015 36.4203 134.04 36.3513 134.04 36.2684V35.328C134.04 35.2399 134.013 35.1699 133.957 35.1181C133.904 35.0663 133.836 35.0404 133.753 35.0404H132.274V34.4005H133.753C133.846 34.4005 133.946 34.4169 134.053 34.4497C134.162 34.4826 134.262 34.5361 134.354 34.6104C134.447 34.6829 134.525 34.7788 134.587 34.8979C134.649 35.0154 134.68 35.1587 134.68 35.328V36.2735ZM138.359 37.201H137.685V35.6466C137.685 35.5585 137.67 35.4799 137.639 35.4109C137.609 35.3401 137.569 35.2796 137.517 35.2295C137.465 35.1794 137.404 35.1414 137.333 35.1155C137.264 35.0879 137.189 35.0741 137.108 35.0741H135.929V37.201H135.255V34.7347C135.255 34.6881 135.264 34.6449 135.281 34.6052C135.299 34.5637 135.323 34.5283 135.354 34.499C135.385 34.4679 135.421 34.4437 135.463 34.4264C135.504 34.4092 135.548 34.4005 135.595 34.4005H137.113C137.197 34.4005 137.286 34.41 137.38 34.429C137.475 34.448 137.568 34.4791 137.659 34.5223C137.753 34.5637 137.841 34.6173 137.924 34.6829C138.008 34.7468 138.083 34.8254 138.146 34.9186C138.212 35.0102 138.264 35.1164 138.302 35.2373C138.34 35.3582 138.359 35.4946 138.359 35.6466V37.201ZM142.022 36.2554C142.022 36.3711 142.007 36.4756 141.978 36.5689C141.949 36.6604 141.91 36.7416 141.861 36.8124C141.813 36.8815 141.757 36.941 141.693 36.9911C141.629 37.0395 141.562 37.0792 141.491 37.1103C141.422 37.1414 141.351 37.1647 141.278 37.1802C141.208 37.1941 141.14 37.201 141.076 37.201H139.861C139.746 37.201 139.642 37.1863 139.551 37.1569C139.459 37.1276 139.378 37.0887 139.307 37.0404C139.238 36.9903 139.178 36.9333 139.128 36.8694C139.08 36.8055 139.04 36.739 139.009 36.6699C138.978 36.5991 138.955 36.5283 138.939 36.4575C138.925 36.3849 138.918 36.3176 138.918 36.2554V35.3435C138.918 35.1708 138.95 35.0249 139.012 34.9057C139.076 34.7848 139.154 34.6872 139.247 34.613C139.342 34.537 139.445 34.4826 139.556 34.4497C139.666 34.4169 139.768 34.4005 139.861 34.4005H141.076V35.0741H139.867C139.777 35.0741 139.709 35.0974 139.662 35.144C139.615 35.1889 139.592 35.2554 139.592 35.3435V36.2502C139.592 36.3418 139.614 36.4108 139.659 36.4575C139.706 36.5041 139.773 36.5274 139.861 36.5274H141.076C141.168 36.5274 141.236 36.5041 141.281 36.4575C141.326 36.4108 141.348 36.3435 141.348 36.2554V33.2166H142.022V36.2554ZM145.711 36.2554C145.711 36.3711 145.696 36.4756 145.667 36.5689C145.638 36.6604 145.599 36.7416 145.55 36.8124C145.502 36.8815 145.446 36.941 145.382 36.9911C145.318 37.0395 145.251 37.0792 145.18 37.1103C145.111 37.1414 145.04 37.1647 144.968 37.1802C144.897 37.1941 144.829 37.201 144.765 37.201H143.55C143.457 37.201 143.355 37.1846 143.245 37.1518C143.134 37.1189 143.031 37.0654 142.936 36.9911C142.843 36.9151 142.765 36.8176 142.701 36.6984C142.639 36.5775 142.607 36.4298 142.607 36.2554V35.3435C142.607 35.1708 142.639 35.0249 142.701 34.9057C142.765 34.7848 142.843 34.6872 142.936 34.613C143.031 34.537 143.134 34.4826 143.245 34.4497C143.355 34.4169 143.457 34.4005 143.55 34.4005H144.765C144.938 34.4005 145.085 34.4316 145.206 34.4938C145.327 34.556 145.424 34.6345 145.499 34.7295C145.573 34.8228 145.626 34.9247 145.659 35.0352C145.694 35.1458 145.711 35.2485 145.711 35.3435V36.2554ZM145.037 35.3487C145.037 35.2554 145.014 35.1863 144.968 35.1414C144.921 35.0965 144.854 35.0741 144.765 35.0741H143.556C143.466 35.0741 143.398 35.0974 143.351 35.144C143.304 35.1889 143.281 35.2554 143.281 35.3435V36.2554C143.281 36.3435 143.304 36.4108 143.351 36.4575C143.398 36.5041 143.466 36.5274 143.556 36.5274H144.765C144.857 36.5274 144.925 36.5041 144.97 36.4575C145.015 36.4108 145.037 36.3435 145.037 36.2554V35.3487ZM148.765 35.0741H147.242V34.4005H148.765V35.0741ZM148.765 33.8591H147.247C147.156 33.8591 147.087 33.8824 147.04 33.929C146.993 33.9739 146.97 34.0404 146.97 34.1285V37.201H146.297V34.1285C146.297 34.0128 146.311 33.9092 146.341 33.8176C146.37 33.7261 146.409 33.6458 146.457 33.5767C146.507 33.5059 146.564 33.4463 146.628 33.398C146.692 33.3479 146.759 33.3073 146.828 33.2762C146.898 33.2451 146.969 33.2227 147.04 33.2088C147.111 33.1933 147.178 33.1855 147.242 33.1855H148.765V33.8591ZM151.688 35.0741H150.164V34.4005H151.688V35.0741ZM151.688 33.8591H150.169C150.078 33.8591 150.009 33.8824 149.962 33.929C149.916 33.9739 149.892 34.0404 149.892 34.1285V37.201H149.219V34.1285C149.219 34.0128 149.233 33.9092 149.263 33.8176C149.292 33.7261 149.331 33.6458 149.379 33.5767C149.429 33.5059 149.486 33.4463 149.55 33.398C149.614 33.3479 149.681 33.3073 149.75 33.2762C149.821 33.2451 149.891 33.2227 149.962 33.2088C150.033 33.1933 150.1 33.1855 150.164 33.1855H151.688V33.8591Z" fill="white"/>
</svg>
