<svg width="24" height="24" viewBox="0 0 24 24" fill="none" xmlns="http://www.w3.org/2000/svg">
<path d="M8.6885 19.5388L3.4615 14.3118C3.30767 14.158 3.19233 13.9875 3.1155 13.8003C3.0385 13.6131 3 13.4176 3 13.2138C3 13.0228 3.0385 12.8337 3.1155 12.6466C3.19233 12.4594 3.30767 12.2888 3.4615 12.1348L9.01925 6.58306L6.52875 4.16956C6.41475 4.05539 6.35675 3.92522 6.35475 3.77906C6.35292 3.63289 6.409 3.50089 6.523 3.38306C6.63717 3.26506 6.76925 3.20605 6.91925 3.20605C7.06925 3.20605 7.20325 3.26506 7.32125 3.38306L16.073 12.1541C16.2268 12.3079 16.3413 12.4785 16.4163 12.6658C16.4913 12.853 16.5288 13.0421 16.5288 13.2331C16.5288 13.4369 16.4913 13.6324 16.4163 13.8196C16.3413 14.0067 16.2268 14.1772 16.073 14.3311L10.8655 19.5388C10.7115 19.6926 10.5409 19.808 10.3537 19.8848C10.1666 19.9618 9.9775 20.0003 9.7865 20.0003C9.58267 20.0003 9.38717 19.9618 9.2 19.8848C9.01283 19.808 8.84233 19.6926 8.6885 19.5388ZM9.76725 7.33105L4.302 12.7966C4.225 12.8734 4.17367 12.9503 4.148 13.0273C4.12233 13.1041 4.1095 13.1811 4.1095 13.2581H15.425C15.425 13.1811 15.4122 13.1041 15.3865 13.0273C15.3608 12.9503 15.3096 12.8734 15.2328 12.7966L9.76725 7.33105ZM19.3193 20.0003C18.8474 20.0003 18.4545 19.8359 18.1405 19.5071C17.8263 19.1782 17.6693 18.776 17.6693 18.3003C17.6693 17.94 17.7465 17.5919 17.901 17.2561C18.0555 16.9202 18.2552 16.6055 18.5 16.3118L18.8595 15.8658C18.984 15.7208 19.1382 15.6474 19.322 15.6456C19.506 15.6436 19.6602 15.715 19.7845 15.8598L20.1885 16.3118C20.4295 16.6055 20.6282 16.9202 20.7845 17.2561C20.941 17.5919 21.0193 17.94 21.0193 18.3003C21.0193 18.776 20.8538 19.1782 20.523 19.5071C20.1923 19.8359 19.7911 20.0003 19.3193 20.0003Z" fill="white"/>
</svg>
